<svg xmlns="http://www.w3.org/2000/svg"  viewBox="0 0 60 60" width="480px" height="480px"><path fill="#826856" d="M42.76,41.13,57.4,51.92A3.922,3.922,0,0,1,55.059,59a3.962,3.962,0,0,1-2.79-1.15L38.92,44.54Z"/><circle cx="25" cy="25" r="24" fill="#d1d4dc"/><circle cx="25" cy="25" r="20" fill="#509aee"/><path fill="#385a74" d="M18.39,23.32a7,7,0,1,1,13.22,0Z"/><path fill="#477594" d="M36,33c0,.34-.01.67-.04,1C35.5,40.16,30.77,45,25,45S14.5,40.16,14.04,34c-.03-.33-.04-.66-.04-1s.01-.67.04-1a12.647,12.647,0,0,1,1.89-5.79A11.243,11.243,0,0,1,24,21.05c.33-.03.66-.05,1-.05s.67.02,1,.05a11.243,11.243,0,0,1,8.07,5.16A12.647,12.647,0,0,1,35.96,32C35.99,32.33,36,32.66,36,33Z"/><path fill="#373737" d="M25,50a24.94,24.94,0,0,0,13.809-4.158L51.566,58.561a4.933,4.933,0,1,0,6.426-7.446L44.234,40.974a25.315,25.315,0,0,0,2.991-4.515,1,1,0,1,0-1.778-.918,23.17,23.17,0,0,1-3.457,4.964c-.01.012-.025.018-.035.031s0,.012-.008.018a22.91,22.91,0,0,1-3.6,3.187.991.991,0,0,0-.139.093l-.008.012a22.98,22.98,0,1,1,9.071-13.095,1,1,0,0,0,1.938.5A25,25,0,1,0,25,50Zm32.991,4.852a2.918,2.918,0,0,1-.85,2.291,3.031,3.031,0,0,1-4.165,0L40.453,44.657a24.831,24.831,0,0,0,2.433-2.192L56.808,52.727A2.9,2.9,0,0,1,57.991,54.852Z"/><path fill="#373737" d="M25,4a1,1,0,0,0,0,2,18.988,18.988,0,0,1,8.78,35.83,13.5,13.5,0,0,0,3.18-7.92,5.052,5.052,0,0,0,4.01-3.65A2.07,2.07,0,0,0,41,30a1,1,0,0,0-1-1,1.028,1.028,0,0,0-.99.83,2.947,2.947,0,0,1-2.06,2.03,13.636,13.636,0,0,0-1.99-6.1,8.8,8.8,0,0,0,3.99-4.45,1,1,0,0,0-1.9-.63,6.946,6.946,0,0,1-3.3,3.45,11.813,11.813,0,0,0-1.04-1.08A8.314,8.314,0,0,0,33,21a8,8,0,0,0-4.43-7.15A4.42,4.42,0,0,1,32,12a1,1,0,0,0,0-2,6.388,6.388,0,0,0-5.35,3.17,8.092,8.092,0,0,0-3.3,0A6.388,6.388,0,0,0,18,10a1,1,0,0,0,0,2,4.461,4.461,0,0,1,3.43,1.85A8,8,0,0,0,17,21a8.314,8.314,0,0,0,.29,2.05,11.813,11.813,0,0,0-1.04,1.08,6.906,6.906,0,0,1-3.3-3.45,1,1,0,0,0-1.9.63,8.8,8.8,0,0,0,3.99,4.45,13.636,13.636,0,0,0-1.99,6.1,3.006,3.006,0,0,1-2.08-2.12.973.973,0,0,0-1.22-.66,1.044,1.044,0,0,0-.69,1.27,4.99,4.99,0,0,0,3.98,3.56,13.5,13.5,0,0,0,3.18,7.92A18.989,18.989,0,0,1,19.3,6.87a1,1,0,1,0-.6-1.9A20.992,20.992,0,1,0,25,4Zm0,11a6,6,0,0,1,6,6,5.826,5.826,0,0,1-.06.72,11.117,11.117,0,0,0-11.88,0A5.826,5.826,0,0,1,19,21,6,6,0,0,1,25,15Zm0,29c-5.51,0-10-4.93-10-11,0-5.69,3.95-10.39,9-10.94V40a1,1,0,0,0,2,0V22.06c5.05.55,9,5.25,9,10.94C35,39.07,30.51,44,25,44Z"/></svg>