<svg xmlns="http://www.w3.org/2000/svg"  viewBox="0 0 60 60" width="480px" height="480px"><path fill="#704942" d="M3,16V10a11.455,11.455,0,0,1,.2-2.14A4.7,4.7,0,0,1,4.9,5.08,4.987,4.987,0,0,1,8,4s1-3,8-3c3.5,0,5.5.75,6.62,1.5A3.369,3.369,0,0,1,24,4a4.86,4.86,0,0,1,4.8,3.86A11.455,11.455,0,0,1,29,10v6l-1,1H4Z"/><path fill="#35718a" d="M9,37a8.685,8.685,0,0,0-5.45,2.05A6.543,6.543,0,0,0,1,44v7a3,3,0,0,0,3,3H28a3,3,0,0,0,3-3V44a6.543,6.543,0,0,0-2.55-4.95A8.685,8.685,0,0,0,23,37Z"/><path fill="#fff" d="M23,37a14.953,14.953,0,0,1,.26,2.97,18.465,18.465,0,0,1-5.42,13.2,2.5,2.5,0,0,1-3.68,0A18.592,18.592,0,0,1,9,37Z"/><path fill="#cd4c60" d="M18.82,52.11c-.3.36-.63.71-.98,1.06a2.5,2.5,0,0,1-3.68,0c-.35-.35-.68-.7-.98-1.06L14,43h4Z"/><polygon fill="#a53c50" points="19.39 40.61 18 43 14 43 12.61 40.61 16 37 19.39 40.61"/><path fill="#e1efff" d="M23,37l-2.58,3.82a.58.58,0,0,1-.84,0l-.19-.21L16,37l-3.39,3.61-.19.21a.58.58,0,0,1-.84,0L9,37l4-3h6Z"/><polygon fill="#925c4c" points="19 31 19 34 16 37 13 34 13 31 19 31"/><rect width="28" height="31" x="31" y="28" fill="#e1efff" rx="3"/><path fill="#a9725e" d="M25,16c0-4-3.624-5.68-4.661-5.98a.43.43,0,0,0-.472.15A4.488,4.488,0,0,1,16,12a4.488,4.488,0,0,1-3.867-1.83.43.43,0,0,0-.472-.15C10.624,10.32,7,12,7,16v0a2,2,0,0,0-2-2H5a2,2,0,0,0-2,2v3a3,3,0,0,0,3,3H6A10,10,0,0,0,16,32h0A10,10,0,0,0,26,22h0a3,3,0,0,0,3-3V16a2,2,0,0,0-2-2h0a2,2,0,0,0-2,2v0Z"/><path fill="#373737" d="M4,55H28a3.959,3.959,0,0,0,2-.556V56a4,4,0,0,0,4,4H56a4,4,0,0,0,4-4V31a4,4,0,0,0-4-4H42a1,1,0,0,0,0,2H56a2,2,0,0,1,2,2V56a2,2,0,0,1-2,2H34a2,2,0,0,1-2-2V31a2,2,0,0,1,2-2h4a1,1,0,0,0,0-2H34a4,4,0,0,0-4,4v8.164a9.34,9.34,0,0,0-.906-.88,9.7,9.7,0,0,0-5.739-2.267L20,33.5V32.243a11.019,11.019,0,0,0,6.965-9.361A4.007,4.007,0,0,0,30,19V10a12.379,12.379,0,0,0-.22-2.334A5.854,5.854,0,0,0,24.605,3.03a5.146,5.146,0,0,0-1.428-1.361C21.522.562,19.107,0,16,0,10.228,0,8.115,1.957,7.39,3.032A6.03,6.03,0,0,0,4.276,4.3,5.719,5.719,0,0,0,2.218,7.673,12.416,12.416,0,0,0,2,10v9a4.007,4.007,0,0,0,3.035,3.882A11.019,11.019,0,0,0,12,32.243V33.5L8.645,36.017a9.7,9.7,0,0,0-5.737,2.265A7.491,7.491,0,0,0,0,44v7A4,4,0,0,0,4,55ZM9.759,39.911l.992,1.469a1.056,1.056,0,0,0,.107.133,1.516,1.516,0,0,0,1.389.462l.728,1.251-.561,6.132A17.867,17.867,0,0,1,9.759,39.911ZM16,38.462l2.149,2.293L17.425,42h-2.85l-.724-1.245Zm6.258,1.423c0,.029,0,.055,0,.085a17.553,17.553,0,0,1-2.671,9.423l-.564-6.167.728-1.251a1.516,1.516,0,0,0,1.389-.462,1.056,1.056,0,0,0,.107-.133ZM15.907,52.979a1.4,1.4,0,0,1-1.039-.516c-.239-.24-.444-.486-.662-.729L14.913,44h2.174l.71,7.758c-.214.237-.434.474-.667.708A1.77,1.77,0,0,1,15.907,52.979ZM30,44v7a2,2,0,0,1-2,2H19.372A19.649,19.649,0,0,0,24.26,39.97c0-.728-.04-1.355-.09-1.859a7.923,7.923,0,0,1,3.639,1.706A5.53,5.53,0,0,1,30,44ZM19.94,39.743l-2.548-2.721,1.7-1.7,2.545,1.909ZM4.183,8.049A3.7,3.7,0,0,1,5.521,5.864,3.96,3.96,0,0,1,8,5a1.047,1.047,0,0,0,.937-.653C8.947,4.323,9.972,2,16,2c3.369,0,5.157.724,6.067,1.333a2.729,2.729,0,0,1,.985.983A1,1,0,0,0,24,5a3.861,3.861,0,0,1,3.817,3.047A10.475,10.475,0,0,1,28,10v3.184a2.922,2.922,0,0,0-2.493.214,7.864,7.864,0,0,0-4.886-4.337,1.44,1.44,0,0,0-1.577.542A3.521,3.521,0,0,1,16,11a3.526,3.526,0,0,1-3.062-1.423,1.43,1.43,0,0,0-1.555-.517A7.867,7.867,0,0,0,6.493,13.4,2.922,2.922,0,0,0,4,13.184V10A10.437,10.437,0,0,1,4.183,8.049ZM7,22a1,1,0,0,0-1-1,2,2,0,0,1-2-2V16a1,1,0,0,1,2,0v0a1,1,0,0,0,2,0c0-3.1,2.634-4.487,3.6-4.89A5.578,5.578,0,0,0,16,13a5.58,5.58,0,0,0,4.405-1.89C21.365,11.512,24,12.9,24,16v0a1,1,0,0,0,2,0,1,1,0,0,1,2,0v3a2,2,0,0,1-2,2,1,1,0,0,0-1,1A9,9,0,0,1,7,22Zm9,11a10.989,10.989,0,0,0,2-.187v.773l-2,2-2-2v-.773A10.989,10.989,0,0,0,16,33Zm-3.094,2.32,1.7,1.7L12.06,39.743l-1.7-2.514ZM2,44a5.533,5.533,0,0,1,2.193-4.185,7.937,7.937,0,0,1,3.633-1.708A19.444,19.444,0,0,0,12.624,53H4a2,2,0,0,1-2-2Z"/><path fill="#373737" d="M20.8,25.6a1,1,0,0,0-1.6-1.2,4,4,0,0,1-6.4,0,1,1,0,1,0-1.6,1.2,6,6,0,0,0,9.6,0Z"/><path fill="#373737" d="M36.707,34.293a1,1,0,0,0-1.414,1.414l1,1a1,1,0,0,0,1.414,0l3-3a1,1,0,0,0-1.414-1.414L37,34.586Z"/><path fill="#373737" d="M44,36H54a1,1,0,0,0,0-2H44a1,1,0,0,0,0,2Z"/><path fill="#373737" d="M40.707,38.293a1,1,0,0,0-1.414,0L37,40.586l-.293-.293a1,1,0,0,0-1.414,1.414l1,1a1,1,0,0,0,1.414,0l3-3A1,1,0,0,0,40.707,38.293Z"/><path fill="#373737" d="M44,42H54a1,1,0,0,0,0-2H44a1,1,0,0,0,0,2Z"/><path fill="#373737" d="M40.707,44.293a1,1,0,0,0-1.414,0L37,46.586l-.293-.293a1,1,0,0,0-1.414,1.414l1,1a1,1,0,0,0,1.414,0l3-3A1,1,0,0,0,40.707,44.293Z"/><path fill="#373737" d="M44,48H54a1,1,0,0,0,0-2H44a1,1,0,0,0,0,2Z"/><path fill="#373737" d="M39.293,50.293,37,52.586l-.293-.293a1,1,0,0,0-1.414,1.414l1,1a1,1,0,0,0,1.414,0l3-3a1,1,0,0,0-1.414-1.414Z"/><path fill="#373737" d="M44,54H54a1,1,0,0,0,0-2H44a1,1,0,0,0,0,2Z"/></svg>
