<svg xmlns="http://www.w3.org/2000/svg"  viewBox="0 0 100 100" width="500px" height="500px"><path fill="#c7ede6" d="M87.215,56.71C88.35,54.555,89,52.105,89,49.5c0-6.621-4.159-12.257-10.001-14.478 C78.999,35.015,79,35.008,79,35c0-11.598-9.402-21-21-21c-9.784,0-17.981,6.701-20.313,15.757C36.211,29.272,34.638,29,33,29 c-7.692,0-14.023,5.793-14.89,13.252C12.906,43.353,9,47.969,9,53.5C9,59.851,14.149,65,20.5,65c0.177,0,0.352-0.012,0.526-0.022 C21.022,65.153,21,65.324,21,65.5C21,76.822,30.178,86,41.5,86c6.437,0,12.175-2.972,15.934-7.614C59.612,80.611,62.64,82,66,82 c4.65,0,8.674-2.65,10.666-6.518C77.718,75.817,78.837,76,80,76c6.075,0,11-4.925,11-11C91,61.689,89.53,58.727,87.215,56.71z"/><path fill="#fdfcef" d="M71.125,70.5c0,0-3.64,0-6.125,0s-4.5-2.015-4.5-4.5c0-2.333,1.782-4.229,4.055-4.455 C64.533,61.364,64.5,61.187,64.5,61c0-2.485,2.015-4.5,4.5-4.5c1.438,0,2.703,0.686,3.527,1.736 C72.667,55.6,74.829,53.5,77.5,53.5c2.761,0,5,2.239,5,5c0,0.446-0.077,0.87-0.187,1.282c0.642-0.777,1.6-1.282,2.687-1.282 c1.781,0,3.234,1.335,3.455,3.055C88.636,61.533,88.813,61.5,89,61.5c2.485,0,4.5,2.015,4.5,4.5s-2.015,4.5-4.5,4.5s-9.5,0-9.5,0 h-5.375V71h-3V70.5z"/><path fill="#472b29" d="M77.5,53c3.033,0,5.5,2.467,5.5,5.5c0,0.016,0,0.031,0,0.047C83.602,58.192,84.29,58,85,58 c1.831,0,3.411,1.261,3.858,3.005C88.905,61.002,88.952,61,89,61c2.757,0,5,2.243,5,5c0,2.757-2.243,5-5,5H74.125 c-0.276,0-0.5-0.224-0.5-0.5c0-0.276,0.224-0.5,0.5-0.5H89c2.206,0,4-1.794,4-4c0-2.206-1.794-4-4-4 c-0.117,0-0.23,0.017-0.343,0.032l-0.141,0.019c-0.021,0.003-0.041,0.004-0.062,0.004c-0.246,0-0.462-0.185-0.495-0.437 C87.768,60.125,86.496,59,85,59c-0.885,0-1.723,0.401-2.301,1.1c-0.098,0.118-0.241,0.182-0.386,0.182 c-0.078,0-0.156-0.018-0.228-0.056c-0.209-0.107-0.314-0.346-0.254-0.573C81.946,59.218,82,58.852,82,58.5 c0-2.481-2.019-4.5-4.5-4.5c-2.381,0-4.347,1.872-4.474,4.263c-0.011,0.208-0.15,0.387-0.349,0.45 c-0.05,0.016-0.101,0.024-0.152,0.024c-0.15,0-0.296-0.069-0.392-0.192C71.362,57.563,70.221,57,69,57c-2.206,0-4,1.794-4,4 c0,0.117,0.017,0.23,0.032,0.343l0.019,0.141c0.016,0.134-0.022,0.268-0.106,0.373c-0.084,0.105-0.207,0.172-0.34,0.185 C62.549,62.247,61,63.949,61,66c0,2.206,1.794,4,4,4h6.125c0.276,0,0.5,0.224,0.5,0.5c0,0.276-0.224,0.5-0.5,0.5H65 c-2.757,0-5-2.243-5-5c0-2.397,1.689-4.413,4.003-4.877C64.001,61.082,64,61.041,64,61c0-2.757,2.243-5,5-5 c1.176,0,2.293,0.416,3.183,1.164C72.781,54.76,74.945,53,77.5,53L77.5,53z"/><path fill="#472b29" d="M79 60c1.403 0 2.609.999 2.913 2.341C82.28 62.119 82.699 62 83.125 62c1.202 0 2.198.897 2.353 2.068C85.681 64.022 85.874 64 86.063 64c1.529 0 2.811 1.2 2.918 2.732C88.99 66.87 88.886 66.99 88.749 67c-.006 0-.012 0-.018 0-.13 0-.24-.101-.249-.232-.089-1.271-1.151-2.268-2.419-2.268-.229 0-.47.042-.738.127-.022.007-.045.01-.067.01-.055 0-.11-.02-.156-.054C85.038 64.537 85 64.455 85 64.375c0-1.034-.841-1.875-1.875-1.875-.447 0-.885.168-1.231.473-.047.041-.106.063-.165.063-.032 0-.063-.006-.093-.019-.088-.035-.148-.117-.155-.212C81.377 61.512 80.288 60.5 79 60.5c-.208 0-.425.034-.682.107-.023.007-.047.01-.07.01-.109 0-.207-.073-.239-.182-.038-.133.039-.271.172-.309C78.483 60.04 78.744 60 79 60L79 60zM65.117 61.5c1.326 0 2.508.897 2.874 2.182.038.133-.039.271-.172.309C67.795 63.997 67.772 64 67.75 64c-.109 0-.209-.072-.24-.182C67.205 62.748 66.221 62 65.117 62c-.117 0-.23.014-.342.029-.012.002-.023.003-.035.003-.121 0-.229-.092-.246-.217-.019-.137.077-.263.214-.281C64.842 61.516 64.978 61.5 65.117 61.5L65.117 61.5z"/><path fill="#fff" d="M27.405 70H17.5c-.276 0-.5-.224-.5-.5s.224-.5.5-.5h9.905c.276 0 .5.224.5.5S27.682 70 27.405 70zM30.5 70h-1c-.276 0-.5-.224-.5-.5s.224-.5.5-.5h1c.276 0 .5.224.5.5S30.777 70 30.5 70zM35.491 72H26.5c-.276 0-.5-.224-.5-.5s.224-.5.5-.5h8.991c.276 0 .5.224.5.5S35.767 72 35.491 72zM24.5 72h-1c-.276 0-.5-.224-.5-.5s.224-.5.5-.5h1c.276 0 .5.224.5.5S24.777 72 24.5 72zM21.5 72h-2c-.276 0-.5-.224-.5-.5s.224-.5.5-.5h2c.276 0 .5.224.5.5S21.777 72 21.5 72zM27.5 74h-2c-.276 0-.5-.224-.5-.5s.224-.5.5-.5h2c.276 0 .5.224.5.5S27.776 74 27.5 74zM30.5 65c-.177 0-.823 0-1 0-.276 0-.5.224-.5.5 0 .276.224.5.5.5.177 0 .823 0 1 0 .276 0 .5-.224.5-.5C31 65.224 30.776 65 30.5 65zM30.5 67c-.177 0-4.823 0-5 0-.276 0-.5.224-.5.5 0 .276.224.5.5.5.177 0 4.823 0 5 0 .276 0 .5-.224.5-.5C31 67.224 30.776 67 30.5 67zM35.5 69c-.177 0-2.823 0-3 0-.276 0-.5.224-.5.5 0 .276.224.5.5.5.177 0 2.823 0 3 0 .276 0 .5-.224.5-.5C36 69.224 35.776 69 35.5 69z"/><g><path fill="#fff" d="M72.5 24h-10c-.276 0-.5-.224-.5-.5s.224-.5.5-.5h10c.276 0 .5.224.5.5S72.776 24 72.5 24zM76.5 24h-2c-.276 0-.5-.224-.5-.5s.224-.5.5-.5h2c.276 0 .5.224.5.5S76.776 24 76.5 24zM81.5 26h-10c-.276 0-.5-.224-.5-.5s.224-.5.5-.5h10c.276 0 .5.224.5.5S81.777 26 81.5 26zM69.5 26h-1c-.276 0-.5-.224-.5-.5s.224-.5.5-.5h1c.276 0 .5.224.5.5S69.776 26 69.5 26zM66.375 26H64.5c-.276 0-.5-.224-.5-.5s.224-.5.5-.5h1.875c.276 0 .5.224.5.5S66.651 26 66.375 26zM75.5 22h-5c-.276 0-.5-.224-.5-.5s.224-.5.5-.5h5c.276 0 .5.224.5.5S75.777 22 75.5 22zM72.5 28h-2c-.276 0-.5-.224-.5-.5s.224-.5.5-.5h2c.276 0 .5.224.5.5S72.776 28 72.5 28z"/></g><g><path fill="#fdfcef" d="M34.5,56.5c0,0,1.567,0,3.5,0s3.5-1.567,3.5-3.5c0-1.781-1.335-3.234-3.055-3.455 C38.473,49.366,38.5,49.187,38.5,49c0-1.933-1.567-3.5-3.5-3.5c-1.032,0-1.95,0.455-2.59,1.165 c-0.384-1.808-1.987-3.165-3.91-3.165c-2.209,0-4,1.791-4,4c0,0.191,0.03,0.374,0.056,0.558C24.128,47.714,23.592,47.5,23,47.5 c-1.228,0-2.245,0.887-2.455,2.055C20.366,49.527,20.187,49.5,20,49.5c-1.933,0-3.5,1.567-3.5,3.5s1.567,3.5,3.5,3.5s7.5,0,7.5,0 V57h7V56.5z"/><path fill="#472b29" d="M36.25 52C36.112 52 36 51.888 36 51.75c0-1.223.995-2.218 2.218-2.218.034.009.737-.001 1.244.136.133.036.212.173.176.306-.036.134-.173.213-.306.176-.444-.12-1.1-.12-1.113-.118-.948 0-1.719.771-1.719 1.718C36.5 51.888 36.388 52 36.25 52zM29.5 56A.5.5 0 1 0 29.5 57 .5.5 0 1 0 29.5 56z"/><path fill="#472b29" d="M38,57h-3.5c-0.276,0-0.5-0.224-0.5-0.5s0.224-0.5,0.5-0.5H38c1.654,0,3-1.346,3-3 c0-1.496-1.125-2.768-2.618-2.959c-0.134-0.018-0.255-0.088-0.336-0.196s-0.115-0.244-0.094-0.377C37.975,49.314,38,49.16,38,49 c0-1.654-1.346-3-3-3c-0.85,0-1.638,0.355-2.219,1c-0.125,0.139-0.321,0.198-0.5,0.148c-0.182-0.049-0.321-0.195-0.36-0.379 C31.58,45.165,30.141,44,28.5,44c-1.93,0-3.5,1.57-3.5,3.5c0,0.143,0.021,0.28,0.041,0.418c0.029,0.203-0.063,0.438-0.242,0.54 c-0.179,0.102-0.396,0.118-0.556-0.01C23.878,48.155,23.449,48,23,48c-0.966,0-1.792,0.691-1.963,1.644 c-0.048,0.267-0.296,0.446-0.569,0.405C20.314,50.025,20.16,50,20,50c-1.654,0-3,1.346-3,3s1.346,3,3,3h7.5 c0.276,0,0.5,0.224,0.5,0.5S27.776,57,27.5,57H20c-2.206,0-4-1.794-4-4s1.794-4,4-4c0.059,0,0.116,0.002,0.174,0.006 C20.588,47.82,21.711,47,23,47c0.349,0,0.689,0.061,1.011,0.18C24.176,44.847,26.126,43,28.5,43c1.831,0,3.466,1.127,4.153,2.774 C33.333,45.276,34.155,45,35,45c2.206,0,4,1.794,4,4c0,0.048-0.001,0.095-0.004,0.142C40.739,49.59,42,51.169,42,53 C42,55.206,40.206,57,38,57z"/><path fill="#472b29" d="M32.5,56c-0.159,0-0.841,0-1,0c-0.276,0-0.5,0.224-0.5,0.5c0,0.276,0.224,0.5,0.5,0.5 c0.159,0,0.841,0,1,0c0.276,0,0.5-0.224,0.5-0.5C33,56.224,32.776,56,32.5,56z"/></g><g><path fill="#a1d3a2" d="M46.374,61.256v-1.644c0-5.522,3.582-8.475,7.046-11.33c2.797-2.305,5.438-4.482,5.438-7.764 c0-3.41-2.851-6.938-7.62-6.938c-4.621,0-7.748,2.652-8.301,6.969h-6.813c0.595-7.947,6.495-12.85,15.567-12.85 c8.963,0,15.223,5.142,15.223,12.505c0,4.708-2.178,8.189-7.061,11.29c-4.257,2.702-4.893,6.671-4.893,8.796v0.965H46.374z"/><path fill="#472b29" d="M51.691,28.4c8.687,0,14.523,4.744,14.523,11.805c0,4.442-2.078,7.742-6.737,10.699 c-4.539,2.882-5.216,7.118-5.216,9.387v0.265h-7.187v-0.944c0-5.192,3.453-8.037,6.792-10.789 c2.927-2.413,5.693-4.692,5.693-8.304c0-3.754-3.112-7.637-8.32-7.637c-4.711,0-8.082,2.693-8.897,6.969h-5.448 C37.753,32.649,43.185,28.4,51.691,28.4 M51.691,27c-10.348,0-16.027,5.993-16.306,14.25h8.188 c0.279-4.251,3.171-6.969,7.665-6.969c4.39,0,6.92,3.205,6.92,6.237c0,6.659-12.484,8.583-12.484,19.093v2.344h9.987v-1.665 c0-2.826,1.152-6.037,4.567-8.205c4.657-2.955,7.386-6.55,7.386-11.881C67.615,32.505,61.238,27,51.691,27L51.691,27z"/><g><path fill="#a1d3a2" d="M50.668 67.649A5.126 5.126 0 1 0 50.668 77.90100000000001A5.126 5.126 0 1 0 50.668 67.649Z"/><path fill="#472b29" d="M50.668,68.349c2.44,0,4.426,1.985,4.426,4.426s-1.985,4.426-4.426,4.426 s-4.426-1.985-4.426-4.426S48.227,68.349,50.668,68.349 M50.668,66.949c-3.218,0-5.826,2.608-5.826,5.826 s2.608,5.826,5.826,5.826s5.826-2.608,5.826-5.826S53.885,66.949,50.668,66.949L50.668,66.949z"/></g></g><g><path fill="#472b29" d="M56.232,31.891c-0.043,0-0.087-0.006-0.131-0.018c-1.35-0.366-2.833-0.552-4.41-0.552 c-0.276,0-0.5-0.224-0.5-0.5s0.224-0.5,0.5-0.5c1.665,0,3.237,0.197,4.672,0.587c0.267,0.072,0.424,0.347,0.352,0.613 C56.654,31.744,56.453,31.891,56.232,31.891z"/></g><g><path fill="#472b29" d="M61.482,34.869c-0.133,0-0.265-0.053-0.363-0.156c-0.539-0.571-1.174-1.081-1.887-1.518 c-0.326-0.2-0.67-0.385-1.028-0.555c-0.25-0.118-0.356-0.417-0.238-0.666c0.119-0.25,0.417-0.354,0.666-0.238 c0.394,0.187,0.771,0.391,1.123,0.606c0.787,0.481,1.491,1.048,2.091,1.683c0.189,0.201,0.181,0.518-0.02,0.707 C61.729,34.824,61.605,34.869,61.482,34.869z"/></g><g><path fill="#472b29" d="M52.491,58.531c-0.02,0-0.039-0.001-0.06-0.003c-0.273-0.032-0.47-0.281-0.438-0.556 c0.452-3.858,2.559-7.163,5.93-9.304c3.777-2.399,5.39-4.888,5.39-8.32c0-1.01-0.162-1.975-0.482-2.868 c-0.129-0.36-0.287-0.716-0.471-1.056c-0.131-0.243-0.04-0.547,0.203-0.678c0.245-0.129,0.546-0.039,0.678,0.203 c0.207,0.385,0.386,0.786,0.531,1.192c0.359,1.003,0.541,2.081,0.541,3.206c0,3.818-1.751,6.559-5.854,9.164 c-3.111,1.977-5.055,5.022-5.471,8.577C52.957,58.344,52.741,58.531,52.491,58.531z"/></g><g><path fill="#472b29" d="M50.412,76.045c-0.276,0-0.5-0.224-0.5-0.5s0.224-0.5,0.5-0.5c0.467,0,0.923-0.163,1.284-0.46 c0.471-0.387,0.741-0.958,0.741-1.566c0-1.117-0.908-2.025-2.025-2.025c-0.542,0-1.051,0.211-1.433,0.593 c-0.195,0.195-0.512,0.195-0.707,0s-0.195-0.512,0-0.707c0.571-0.571,1.331-0.886,2.14-0.886c1.668,0,3.025,1.357,3.025,3.025 c0,0.909-0.403,1.762-1.106,2.34C51.791,75.801,51.109,76.045,50.412,76.045z"/></g></svg>
