<?xml version="1.0" encoding="iso-8859-1"?>
<!-- Generator: Adobe Illustrator 23.0.3, SVG Export Plug-In . SVG Version: 6.00 Build 0)  -->
<svg version="1.1" id="Layer_1" xmlns="http://www.w3.org/2000/svg" xmlns:xlink="http://www.w3.org/1999/xlink" x="0px" y="0px"
	 viewBox="0 0 48 48" style="enable-background:new 0 0 48 48;" xml:space="preserve">
<linearGradient id="SVGID_1_" gradientUnits="userSpaceOnUse" x1="12.686" y1="249.408" x2="35.58" y2="212.159" gradientTransform="matrix(1 0 0 -1 0 254)">
	<stop  offset="0" style="stop-color:#33BEF0"/>
	<stop  offset="1" style="stop-color:#0A85D9"/>
</linearGradient>
<path style="fill:url(#SVGID_1_);" d="M42,8H6c-1.105,0-2,0.895-2,2v26c0,1.105,0.895,2,2,2h8v7.998
	c0,0.891,1.077,1.337,1.707,0.707L24.412,38H42c1.105,0,2-0.895,2-2V10C44,8.895,43.105,8,42,8z"/>
<radialGradient id="SVGID_2_" cx="38.234" cy="38.2128" r="12.1744" gradientUnits="userSpaceOnUse">
	<stop  offset="0" style="stop-color:#000000"/>
	<stop  offset="0.979" style="stop-color:#000000;stop-opacity:0"/>
</radialGradient>
<path style="fill:url(#SVGID_2_);" d="M44,36v-8.376C42.232,26.598,40.187,26,38,26c-6.617,0-12,5.383-12,12h16
	C43.105,38,44,37.105,44,36z"/>
<linearGradient id="SVGID_3_" gradientUnits="userSpaceOnUse" x1="31.2629" y1="29.4225" x2="44.348" y2="46.0821">
	<stop  offset="0" style="stop-color:#21AD64"/>
	<stop  offset="1" style="stop-color:#088242"/>
</linearGradient>
<circle style="fill:url(#SVGID_3_);" cx="38" cy="38" r="10"/>
<path style="fill:#FFFFFF;" d="M38.5,43h-1c-0.276,0-0.5-0.224-0.5-0.5v-9c0-0.276,0.224-0.5,0.5-0.5h1c0.276,0,0.5,0.224,0.5,0.5v9
	C39,42.776,38.776,43,38.5,43z"/>
<path style="fill:#FFFFFF;" d="M33,38.5v-1c0-0.276,0.224-0.5,0.5-0.5h9c0.276,0,0.5,0.224,0.5,0.5v1c0,0.276-0.224,0.5-0.5,0.5h-9
	C33.224,39,33,38.776,33,38.5z"/>
</svg>
