<svg xmlns="http://www.w3.org/2000/svg"  viewBox="0 0 40 40" width="480px" height="480px"><path fill="#98ccfd" d="M12,31.5c-0.276,0-0.5-0.224-0.5-0.5v-3.5h24V31c0,0.276-0.224,0.5-0.5,0.5H12z"/><path fill="#4788c7" d="M35,28v3H12v-3H35 M36,27H11v4c0,0.552,0.448,1,1,1h23c0.552,0,1-0.448,1-1V27L36,27z"/><path fill="#4788c7" d="M31 28H32V32H31zM27 27.929H28V32H27zM23 27.929H24V32H23zM19 27.929H20V32H19zM15 27.929H16V32H15z"/><path fill="#dff0fe" d="M7.5,27.5v-21H36c1.378,0,2.5,1.122,2.5,2.5v16c0,1.378-1.122,2.5-2.5,2.5H7.5z"/><path fill="#4788c7" d="M36,7c1.103,0,2,0.897,2,2v16c0,1.103-0.897,2-2,2H8V7H36 M36,6H7v22h29c1.657,0,3-1.343,3-3V9 C39,7.343,37.657,6,36,6L36,6z"/><path fill="#b6dcfe" d="M5.5,38.5v-34h-4v-3H6c1.378,0,2.5,1.122,2.5,2.5v34.5H5.5z"/><path fill="#4788c7" d="M6 2c1.103 0 2 .897 2 2l0 1v33H6V5 4H5 2V2H6M6 1H1v4h4v34h4V5h0V4C9 2.343 7.657 1 6 1L6 1zM9 15H23V16H9zM9 19H23V20H9z"/><g><path fill="#98ccfd" d="M22.5 12.5H32.5V22.5H22.5z"/><path fill="#4788c7" d="M32,13v9h-9v-9H32 M33,12H22v11h11V12L33,12z"/></g></svg>
