<svg xmlns="http://www.w3.org/2000/svg"  viewBox="0 0 80 80" width="480px" height="480px"><path fill="#fff" d="M2.5 26.5H77.5V53.5H2.5z"/><path fill="#788b9c" d="M77,27v26H3V27H77 M78,26H2v28h76V26L78,26z"/><path fill="#c2e8ff" d="M8 32H52V48H8z"/><path fill="#36404d" d="M71,70h-4.2c-3.2,0-5.8-2.6-5.8-5.8V18.8c0-3.2,2.6-5.8,5.8-5.8H71v1h-4.2c-2.7,0-4.8,2.2-4.8,4.8 v45.3c0,2.7,2.2,4.8,4.8,4.8H71V70z"/><path fill="#36404d" d="M56.2,70H52v-1h4.2c2.7,0,4.8-2.2,4.8-4.8V18.8c0-2.7-2.2-4.8-4.8-4.8H52v-1h4.2 c3.2,0,5.8,2.6,5.8,5.8v45.3C62,67.4,59.4,70,56.2,70z"/></svg>
