<svg xmlns="http://www.w3.org/2000/svg"  viewBox="0 0 256 256" width="512px" height="512px"><path fill="#6bdddd" d="M242,244H14c-3.314,0-6-2.686-6-6l0,0c0-3.314,2.686-6,6-6h228c3.314,0,6,2.686,6,6l0,0 C248,241.314,245.314,244,242,244z"/><path fill="#a4c9ff" d="M56.5,222h-25c-2.761,0-5-2.239-5-5V112c0-2.761,2.239-5,5-5h25c2.761,0,5,2.239,5,5v105 C61.5,219.761,59.261,222,56.5,222z"/><path fill="#a4c9ff" d="M112.5,222h-25c-2.761,0-5-2.239-5-5v-72.333c0-2.761,2.239-5,5-5h25c2.761,0,5,2.239,5,5V217 C117.5,219.761,115.261,222,112.5,222z"/><path fill="#a4c9ff" d="M168.5,222h-25c-2.761,0-5-2.239-5-5V73.333c0-2.761,2.239-5,5-5h25c2.761,0,5,2.239,5,5V217 C173.5,219.761,171.261,222,168.5,222z"/><path fill="#a4c9ff" d="M224.5,222h-25c-2.761,0-5-2.239-5-5V112c0-2.761,2.239-5,5-5h25c2.761,0,5,2.239,5,5v105 C229.5,219.761,227.261,222,224.5,222z"/><path fill="#4671c6" d="M100,112.833c-0.738,0-1.463-0.233-2.067-0.676l-56-41c-1.56-1.142-1.898-3.332-0.757-4.892 c1.141-1.56,3.332-1.898,4.892-0.757l52.97,38.782l54-85.821c0.555-0.882,1.474-1.471,2.507-1.606 c1.035-0.136,2.073,0.197,2.836,0.905l56,52c1.417,1.315,1.499,3.53,0.184,4.946c-1.314,1.417-3.529,1.499-4.946,0.184 l-52.905-49.126l-53.751,85.425c-0.517,0.822-1.353,1.392-2.306,1.574C100.438,112.813,100.219,112.833,100,112.833z"/><circle cx="44" cy="68.333" r="7.92" fill="#ffea92"/><circle cx="100" cy="109.333" r="7.92" fill="#ffea92"/><circle cx="156" cy="20.333" r="7.92" fill="#ffea92"/><circle cx="212" cy="72.333" r="7.92" fill="#ffea92"/><path fill="#3762cc" d="M44,78.253c-5.47,0-9.92-4.45-9.92-9.92s4.45-9.92,9.92-9.92s9.92,4.45,9.92,9.92S49.47,78.253,44,78.253z M44,62.413c-3.264,0-5.92,2.655-5.92,5.92s2.656,5.92,5.92,5.92s5.92-2.655,5.92-5.92S47.264,62.413,44,62.413z"/><path fill="#3762cc" d="M100,119.253c-5.47,0-9.92-4.45-9.92-9.92s4.45-9.92,9.92-9.92s9.92,4.45,9.92,9.92 S105.47,119.253,100,119.253z M100,103.413c-3.264,0-5.92,2.655-5.92,5.92s2.656,5.92,5.92,5.92s5.92-2.655,5.92-5.92 S103.264,103.413,100,103.413z"/><path fill="#3762cc" d="M156,30.253c-5.47,0-9.92-4.45-9.92-9.92s4.45-9.92,9.92-9.92s9.92,4.45,9.92,9.92S161.47,30.253,156,30.253z M156,14.413c-3.264,0-5.92,2.655-5.92,5.92s2.656,5.92,5.92,5.92s5.92-2.655,5.92-5.92S159.264,14.413,156,14.413z"/><path fill="#3762cc" d="M212,82.253c-5.47,0-9.92-4.45-9.92-9.92s4.45-9.92,9.92-9.92s9.92,4.45,9.92,9.92S217.47,82.253,212,82.253z M212,66.413c-3.264,0-5.92,2.655-5.92,5.92s2.656,5.92,5.92,5.92s5.92-2.655,5.92-5.92S215.264,66.413,212,66.413z"/><path fill="#3762cc" d="M242,246H14c-4.411,0-8-3.589-8-8s3.589-8,8-8h228c4.411,0,8,3.589,8,8S246.411,246,242,246z M14,234 c-2.206,0-4,1.794-4,4s1.794,4,4,4h228c2.206,0,4-1.794,4-4s-1.794-4-4-4H14z"/><path fill="#3762cc" d="M56.5,224h-25c-3.86,0-7-3.141-7-7V112c0-3.859,3.14-7,7-7h25c3.86,0,7,3.141,7,7v105 C63.5,220.859,60.36,224,56.5,224z M31.5,109c-1.654,0-3,1.346-3,3v105c0,1.654,1.346,3,3,3h25c1.654,0,3-1.346,3-3V112 c0-1.654-1.346-3-3-3H31.5z"/><path fill="#3762cc" d="M112.5,224h-25c-3.86,0-7-3.141-7-7v-72.333c0-3.859,3.14-7,7-7h25c3.86,0,7,3.141,7,7V217 C119.5,220.859,116.36,224,112.5,224z M87.5,141.667c-1.654,0-3,1.346-3,3V217c0,1.654,1.346,3,3,3h25c1.654,0,3-1.346,3-3 v-72.333c0-1.654-1.346-3-3-3H87.5z"/><path fill="#3762cc" d="M168.5,224h-25c-3.86,0-7-3.141-7-7V73.333c0-3.859,3.14-7,7-7h25c3.86,0,7,3.141,7,7V217 C175.5,220.859,172.36,224,168.5,224z M143.5,70.333c-1.654,0-3,1.346-3,3V217c0,1.654,1.346,3,3,3h25c1.654,0,3-1.346,3-3V73.333 c0-1.654-1.346-3-3-3H143.5z"/><path fill="#3762cc" d="M224.5,224h-25c-3.86,0-7-3.141-7-7V112c0-3.859,3.14-7,7-7h25c3.86,0,7,3.141,7,7v105 C231.5,220.859,228.36,224,224.5,224z M199.5,109c-1.654,0-3,1.346-3,3v105c0,1.654,1.346,3,3,3h25c1.654,0,3-1.346,3-3V112 c0-1.654-1.346-3-3-3H199.5z"/></svg>
