<svg xmlns="http://www.w3.org/2000/svg" viewBox="0 0 48 48"><path d="M 12.5 6 C 8.9280619 6 6 8.9280619 6 12.5 L 6 35.5 C 6 39.071938 8.9280619 42 12.5 42 L 35.5 42 C 39.071938 42 42 39.071938 42 35.5 L 42 12.5 C 42 8.9280619 39.071938 6 35.5 6 L 12.5 6 z M 12.5 9 L 35.5 9 C 37.450062 9 39 10.549938 39 12.5 L 39 27 L 30.859375 27 A 1.50015 1.50015 0 0 0 29.371094 28.316406 C 28.984118 31.464619 26.422975 33 24 33 C 21.577025 33 19.016745 31.465074 18.628906 28.316406 A 1.50015 1.50015 0 0 0 17.140625 27 L 9 27 L 9 12.5 C 9 10.549938 10.549938 9 12.5 9 z"/></svg>
