<svg xmlns="http://www.w3.org/2000/svg"  viewBox="0 0 80 80" width="480px" height="480px"><path fill="#bae0bd" d="M59 56.5H77V77.5H59z"/><path fill="#5e9c76" d="M76.5,57v20h-17V57H76.5 M77.5,56h-19v22h19V56L77.5,56z"/><path fill="#bae0bd" d="M3 56.5H21V77.5H3z"/><path fill="#5e9c76" d="M20.5,57v20h-17V57H20.5 M21.5,56h-19v22h19V56L21.5,56z"/><path fill="#bae0bd" d="M31 56.5H49V77.5H31z"/><path fill="#5e9c76" d="M48.5,57v20h-17V57H48.5 M49.5,56h-19v22h19V56L49.5,56z"/><g><path fill="#8bb7f0" d="M25 2.5H55V23.5H25z"/><path fill="#4e7ab5" d="M54.5,3v20h-29V3H54.5 M55.5,2h-31v22h31V2L55.5,2z"/></g><path fill="#66798f" d="M12.5 56L12.5 39 67.5 39 67.5 56 68.5 56 68.5 38 11.5 38 11.5 56z"/><path fill="#66798f" d="M39.5 24H40.5V56H39.5z"/></svg>
