<svg xmlns="http://www.w3.org/2000/svg" viewBox="0 0 40 40"><path fill="#5e9c76" d="M19.5,37.5c-9.925,0-18-8.075-18-18s8.075-18,18-18s18,8.075,18,18S29.425,37.5,19.5,37.5z"/><path fill="#37774e" d="M19.5,2C29.15,2,37,9.85,37,19.5S29.15,37,19.5,37S2,29.15,2,19.5S9.85,2,19.5,2 M19.5,1 C9.283,1,1,9.283,1,19.5S9.283,38,19.5,38S38,29.717,38,19.5S29.717,1,19.5,1L19.5,1z"/><path fill="#99c99e" d="M19.5,7C26.393,7,32,12.607,32,19.5S26.393,32,19.5,32S7,26.393,7,19.5S12.607,7,19.5,7 M19.5,6 C12.044,6,6,12.044,6,19.5S12.044,33,19.5,33S33,26.956,33,19.5S26.956,6,19.5,6L19.5,6z"/><path fill="#99c99e" d="M19.5,13c3.584,0,6.5,2.916,6.5,6.5S23.084,26,19.5,26S13,23.084,13,19.5S15.916,13,19.5,13 M19.5,12c-4.142,0-7.5,3.358-7.5,7.5s3.358,7.5,7.5,7.5s7.5-3.358,7.5-7.5S23.642,12,19.5,12L19.5,12z"/><path fill="#99c99e" d="M2 19H37V20H2z"/><path fill="#99c99e" d="M19 2H20V37H19z"/><path fill="#e1efe2" d="M19.5 17A2.5 2.5 0 1 0 19.5 22 2.5 2.5 0 1 0 19.5 17zM11 8A2 2 0 1 0 11 12 2 2 0 1 0 11 8zM11 27A2 2 0 1 0 11 31 2 2 0 1 0 11 27zM29.5 26A1.5 1.5 0 1 0 29.5 29 1.5 1.5 0 1 0 29.5 26z"/><path fill="none" stroke="#e1efe2" stroke-miterlimit="10" stroke-width="2" d="M18.346 20.654L31.859 7.141"/></svg>
