<svg xmlns="http://www.w3.org/2000/svg" viewBox="0 0 48 48"><path fill="#5c6bc0" d="M41,6c0,0-2.219,7,0,14c2.2,6.94,0,15,0,15s-8.002-2.583-15,0c-6.564,2.423-15,0-15,0s2-7,0-14.553 C9.094,13.248,11,6,11,6s8.111,2.423,15,0C32.219,3.813,41,6,41,6z"/><path fill="#fbc02d" d="M14.029,27.314c-0.781-0.781-0.781-2.047,0-2.828l10.607-10.607c0.781-0.781,2.047-0.781,2.828,0 c0.781,0.781,0.781,2.047,0,2.828L16.858,27.314C16.077,28.095,14.81,28.095,14.029,27.314z"/><path fill="#fbc02d" d="M18.979,28.021c-0.781-0.781-0.781-2.047,0-2.828l10.607-10.607c0.781-0.781,2.047-0.781,2.828,0 c0.781,0.781,0.781,2.047,0,2.828L21.808,28.021C21.027,28.802,19.76,28.802,18.979,28.021z"/><path fill="#fbc02d" d="M20.393,32.263c-0.781-0.781-0.781-2.047,0-2.828l10.152-10.152c0.781-0.781,2.047-0.781,2.828,0 c0.781,0.781,0.781,2.047,0,2.828L23.222,32.263C22.441,33.044,21.174,33.044,20.393,32.263z"/><path fill="#fbc02d" d="M21.101,37.213c-0.781-0.781-0.781-2.047,0-2.828l10.481-10.481c0.781-0.781,2.047-0.781,2.828,0 c0.781,0.781,0.781,2.047,0,2.828L23.929,37.213C23.148,37.994,21.881,37.994,21.101,37.213z"/><path fill="#fbc02d" d="M10.847,32.617c-0.452-0.452-0.732-1.078-0.732-1.768V19.536c0-1.381,1.119-2.5,2.5-2.5 c1.38-0.001,2.5,1.119,2.5,2.5v11.314c0,1.381-1.119,2.5-2.5,2.5C11.925,33.349,11.3,33.069,10.847,32.617z"/><rect width="20.414" height="16" x="6.504" y="25.117" fill="#fbc02d" transform="rotate(-45.001 16.711 33.117)"/><path fill="#ffa000" d="M33.374,19.283l-9.445,9.445c-0.389,0.389-0.389,1.025,0,1.414s1.025,0.389,1.414,0l8.031-8.031 C34.152,21.333,34.152,20.061,33.374,19.283z"/><path fill="#ffa000" d="M34.408,26.734L15.154,45.988l-1.417-1.411l20.672-20.672 C35.186,24.683,35.186,25.956,34.408,26.734z"/><path fill="#ffa000" d="M32.414,14.586l-11.06,11.06c-0.389,0.389-0.389,1.025,0,1.414c0.389,0.389,1.025,0.389,1.414,0 l9.646-9.646C33.192,16.636,33.192,15.364,32.414,14.586z"/><path fill="#ffa000" d="M27.465,13.879l-9.193,9.193c-0.389,0.389-0.389,1.025,0,1.414c0.389,0.389,1.025,0.389,1.414,0 l7.778-7.778C28.242,15.929,28.242,14.656,27.465,13.879z"/></svg>
