<svg xmlns="http://www.w3.org/2000/svg" viewBox="0 0 48 48"><path d="M 14.25 5 A 1.50015 1.50015 0 0 0 12.939453 5.7695312 L 3.1894531 23.269531 A 1.50015 1.50015 0 0 0 3.1894531 24.730469 L 12.939453 42.230469 A 1.50015 1.50015 0 0 0 14.25 43 L 33.75 43 A 1.50015 1.50015 0 0 0 35.060547 42.230469 L 44.810547 24.730469 A 1.50015 1.50015 0 0 0 44.810547 23.269531 L 35.060547 5.7695312 A 1.50015 1.50015 0 0 0 33.75 5 L 14.25 5 z M 24 14 C 24.828 14 25.5 14.672 25.5 15.5 L 25.5 25.5 C 25.5 26.328 24.828 27 24 27 C 23.172 27 22.5 26.328 22.5 25.5 L 22.5 15.5 C 22.5 14.672 23.172 14 24 14 z M 24 30 C 25.105 30 26 30.895 26 32 C 26 33.105 25.105 34 24 34 C 22.895 34 22 33.105 22 32 C 22 30.895 22.895 30 24 30 z"/></svg>
