<svg xmlns="http://www.w3.org/2000/svg" width="48" height="48" viewBox="0 0 48 48"><path fill="#90CAF9" d="M4,6c0-1.104,0.896-2,2-2h22c1.104,0,2,0.896,2,2v22c0,1.104-0.896,2-2,2H6c-1.104,0-2-0.896-2-2V6z"/><path fill="#90CAF9" d="M30,18h12c1.104,0,2,0.896,2,2v22c0,1.104-0.896,2-2,2H20c-1.104,0-2-0.896-2-2V30L30,18z"/><path fill="#1565C0" d="M39 29L29 39 39 39z"/><path fill="#1565C0" d="M26.55 30.914H39.277V34.914H26.55z" transform="rotate(45.001 32.913 32.91)"/><path fill="#1565C0" d="M9 19L19 9 9 9z"/><path fill="#1565C0" d="M8.636 13H21.363V17H8.636z" transform="rotate(-134.999 15 15)"/><path fill="#2196F3" d="M18.949,30.465l-1.414-1.414l2.829-2.829l1.414,1.414L18.949,30.465z M23.192,26.222l-1.414-1.414l2.828-2.828l1.414,1.414L23.192,26.222z M27.435,21.979l-1.414-1.414l2.829-2.829l1.414,1.414L27.435,21.979z"/></svg>
