<svg xmlns="http://www.w3.org/2000/svg"  viewBox="0 0 80 80" width="480px" height="480px"><path fill="#99c99e" d="M76.994,77.479c-4.54-0.18-9.737-1.562-14.763-3.935l-0.192-0.091l-0.199,0.076 C58.411,74.837,54.764,75.5,51,75.5c-14.612,0-26.5-10.093-26.5-22.5S36.388,30.5,51,30.5S77.5,40.593,77.5,53 c0,5.192-2.134,10.258-6.009,14.266l-0.242,0.25l0.151,0.314C73.214,71.601,75.093,74.842,76.994,77.479z"/><path fill="#5e9c76" d="M51,31c14.336,0,26,9.869,26,22c0,5.061-2.084,10.004-5.869,13.918l-0.484,0.501l0.302,0.628 c1.637,3.402,3.327,6.377,5.04,8.873c-4.223-0.329-8.954-1.659-13.545-3.827l-0.385-0.182l-0.398,0.152 C58.29,74.348,54.703,75,51,75c-14.336,0-26-9.869-26-22S36.664,31,51,31 M51,30c-14.912,0-27,10.297-27,23 c0,12.703,12.088,23,27,23c3.926,0,7.652-0.72,11.017-2.003C67.105,76.4,72.814,78,78,78c-2.352-3.098-4.402-6.754-6.15-10.387 C75.692,63.64,78,58.55,78,53C78,40.297,65.912,30,51,30L51,30z"/><g><path fill="#8bb7f0" d="M3.006,49.479c1.9-2.638,3.779-5.878,5.594-9.649l0.151-0.314l-0.242-0.25 C4.634,35.258,2.5,30.192,2.5,25C2.5,12.593,14.388,2.5,29,2.5S55.5,12.593,55.5,25S43.612,47.5,29,47.5 c-3.764,0-7.411-0.663-10.839-1.97l-0.199-0.076l-0.192,0.091C12.744,47.918,7.546,49.299,3.006,49.479z"/><path fill="#4e7ab5" d="M29,3c14.336,0,26,9.869,26,22S43.336,47,29,47c-3.703,0-7.29-0.652-10.661-1.937l-0.398-0.152 l-0.385,0.182c-4.591,2.168-9.322,3.498-13.545,3.827c1.712-2.496,3.403-5.471,5.04-8.873l0.302-0.628l-0.484-0.501 C5.084,35.004,3,30.061,3,25C3,12.869,14.664,3,29,3 M29,2C14.088,2,2,12.297,2,25c0,5.55,2.308,10.64,6.15,14.613 C6.402,43.246,4.352,46.902,2,50c5.186,0,10.895-1.6,15.983-4.003C21.348,47.28,25.074,48,29,48c14.912,0,27-10.297,27-23 C56,12.297,43.912,2,29,2L29,2z"/></g></svg>
