<svg xmlns="http://www.w3.org/2000/svg" viewBox="0 0 80 80" width="480px" height="480px"><path fill="#ffeea3" d="M39.999,77.461C37.478,76.413,8.64,63.263,8.501,12.367L40,2.523l31.499,9.844C71.36,63.128,42.521,76.402,39.999,77.461z"/><path fill="#ba9b48" d="M40,3.048l30.998,9.687c-0.15,27.142-8.592,43.153-15.684,51.826c-6.816,8.335-13.715,11.663-15.316,12.358c-1.604-0.689-8.499-3.988-15.313-12.305c-7.092-8.656-15.533-24.666-15.683-51.88L40,3.048 M40,2L8,12c0,54.281,32,66,32,66s32-11.864,32-66L40,2L40,2z"/><path fill="#ba9b48" d="M38.5 18.5H41.5V49.5H38.5z"/><path fill="#967a44" d="M41,19v30h-2V19H41 M42,18h-4v32h4V18L42,18z"/><g><path fill="#ba9b48" d="M38.5 54.5H41.5V57.5H38.5z"/><path fill="#967a44" d="M41,55v2h-2v-2H41 M42,54h-4v4h4V54L42,54z"/></g></svg>
