<svg xmlns="http://www.w3.org/2000/svg"  viewBox="0 0 40 40" width="480px" height="480px"><path fill="#b0c1d4" d="M2.5 1.5H5.5V38.5H2.5z"/><path fill="#66798f" d="M5,2v36H3V2H5 M6,1H2v38h4V1L6,1z"/><g><path fill="#f78f8f" d="M29,27.5c-2.839,0-5.725-0.764-8.516-1.502C17.702,25.261,14.825,24.5,12,24.5 c-2.418,0-7.67,1.353-9.5,1.845V4.377C3.938,3.971,9.307,2.5,11.692,2.5c2.697,0,5.459,0.712,8.383,1.465 C23.004,4.72,26.032,5.5,29,5.5c3.075,0,6.95-1.242,8.5-1.786v21.937C36.321,26.076,32.136,27.5,29,27.5z"/><path fill="#c74343" d="M11.692,3c2.634,0,5.366,0.704,8.258,1.449C22.909,5.212,25.969,6,29,6 c2.769,0,6.152-0.976,8-1.587v20.886C35.529,25.812,31.819,27,29,27c-2.774,0-5.628-0.755-8.388-1.486 C17.799,24.77,14.89,24,12,24c-2.236,0-6.779,1.114-9,1.695V4.756C4.805,4.254,9.535,3,11.692,3 M11.692,2C8.834,2,2,4,2,4v23 c0,0,7.142-2,10-2c5.568,0,11.24,3,17,3c3.805,0,9-2,9-2V3c0,0-5.195,2-9,2C23.24,5,17.26,2,11.692,2L11.692,2z"/></g></svg>
