<svg xmlns="http://www.w3.org/2000/svg" width="48" height="48" viewBox="0 0 48 48"><path fill="#3F51B5" d="M37.934,13c0,0.553-0.446,1-0.998,1H4.998C4.446,14,4,13.553,4,13V6c0-0.553,0.446-1,0.998-1h31.938c0.552,0,0.998,0.447,0.998,1V13z"/><path fill="#BBDEFB" d="M4 10H37.934V39H4z"/><path fill="#FFF" d="M23.548,37c0,0,4.469-6,9.98-6s9.98,6,9.98,6s-4.469,6-9.98,6S23.548,37,23.548,37z"/><path fill="#90A4AE" d="M33.528,31c5.512,0,9.98,6,9.98,6s-4.469,6-9.98,6s-9.98-6-9.98-6S28.017,31,33.528,31 M33.528,29c-6.438,0-11.373,6.526-11.58,6.804L21.058,37l0.891,1.196C22.155,38.474,27.09,45,33.528,45s11.374-6.526,11.58-6.804L46,37l-0.892-1.196C44.902,35.526,39.967,29,33.528,29L33.528,29z"/><path fill="#1976D2" d="M23.823 31h-8.845v2h6.734C22.269 32.403 22.98 31.707 23.823 31zM30.947 27.285V27H14.979v2H26.66C27.943 28.254 29.379 27.627 30.947 27.285zM14.979 23H30.948V25H14.979zM14.979 19H30.948V21H14.979zM14.979 15H30.948V17H14.979zM10.986 15H12.982000000000001V17H10.986zM10.986 19H12.982000000000001V21H10.986zM10.986 31H12.982000000000001V33H10.986zM10.986 23H12.982000000000001V25H10.986zM10.986 27H12.982000000000001V29H10.986z"/><path fill="#00ACC1" d="M33.528 32A4.99 5 0 1 0 33.528 42A4.99 5 0 1 0 33.528 32Z"/><path fill="#006064" d="M33.528 35.004A1.996 1.996 0 1 0 33.528 38.996A1.996 1.996 0 1 0 33.528 35.004Z"/></svg>
