<svg xmlns="http://www.w3.org/2000/svg"  viewBox="0 0 80 80" width="480px" height="480px"><path fill="#8bb7f0" d="M40,77.5C19.3,77.5,2.5,60.7,2.5,40S19.3,2.5,40,2.5S77.5,19.3,77.5,40S60.7,77.5,40,77.5z"/><path fill="#4e7ab5" d="M40,3c20.4,0,37,16.6,37,37S60.4,77,40,77S3,60.4,3,40S19.6,3,40,3 M40,2C19,2,2,19,2,40 s17,38,38,38s38-17,38-38S61,2,40,2L40,2z"/><path fill="#fff" d="M40 57A3 3 0 1 0 40 63 3 3 0 1 0 40 57zM42 51h-4v-3c0-4.9 2.6-7.5 4.9-9.9C45.1 35.9 47 34 47 30c0-3.9-3.1-7-7-7-3.9 0-7 3.1-7 7v4h-4v-4c0-6.1 4.9-11 11-11s11 4.9 11 11c0 5.6-2.9 8.6-5.3 11-2.1 2.1-3.7 3.8-3.7 7V51z"/></svg>
