<svg xmlns="http://www.w3.org/2000/svg"  viewBox="0 0 80 80" width="480px" height="480px"><path fill="#5e9c76" d="M78 78L2 78 2 59 4 59 4 76 76 76 76 59 78 59z"/><path fill="#bae0bd" d="M35.4,65.5l-2.7-9.2l-0.2-0.1c-3-1-5.7-2.6-8.1-4.7l-0.2-0.2l-8.9,2l-4.6-8.3l6.4-6.4l0-0.3 c-0.3-1.5-0.4-3-0.4-4.5s0.1-3,0.4-4.5l0-0.3l-6.4-6.4l4.6-8.3l8.9,2l0.2-0.2c2.4-2.1,5.1-3.7,8.1-4.7l0.2-0.1l2.7-9.2h9.2 l2.7,9.2l0.2,0.1c3,1,5.7,2.6,8.1,4.7l0.2,0.2l8.9-2l4.6,8.3L63,29.3l0,0.3c0.3,1.5,0.4,3,0.4,4.5s-0.1,3-0.4,4.5l0,0.3l6.4,6.4 l-4.6,8.3l-8.9-2l-0.2,0.2c-2.4,2.1-5.1,3.7-8.1,4.7l-0.2,0.1l-2.7,9.2H35.4z"/><path fill="#5e9c76" d="M44.2,3l2.5,8.5l0.1,0.5l0.5,0.2c2.9,1,5.6,2.5,7.9,4.6l0.4,0.3l0.5-0.1l8.3-1.9l4.3,7.7l-5.9,5.9 l-0.4,0.4l0.1,0.5c0.3,1.4,0.4,2.9,0.4,4.4c0,1.4-0.1,2.9-0.4,4.4l-0.1,0.5l0.4,0.4l5.9,5.9l-4.3,7.7L56.2,51l-0.5-0.1l-0.4,0.3 c-2.3,2.1-5,3.6-7.9,4.6L46.9,56l-0.1,0.5L44.2,65h-8.5l-2.5-8.5L33.1,56l-0.5-0.2c-2.9-1-5.6-2.5-7.9-4.6l-0.4-0.3L23.8,51 l-8.3,1.9l-4.3-7.7l5.9-5.9l0.4-0.4l-0.1-0.5C17.1,36.9,17,35.4,17,34c0-1.4,0.1-2.9,0.4-4.4l0.1-0.5l-0.4-0.4l-5.9-5.9l4.3-7.7 l8.3,1.9l0.5,0.1l0.4-0.3c2.3-2.1,5-3.6,7.9-4.6l0.5-0.2l0.1-0.5L35.8,3H44.2 M45,2H35l-2.7,9.3c-3.1,1-5.9,2.7-8.3,4.8L15,14 l-5,9l6.4,6.4c-0.3,1.5-0.4,3-0.4,4.6s0.2,3.1,0.4,4.6L10,45l5,9l9.1-2.1c2.4,2.1,5.2,3.8,8.3,4.8L35,66h10l2.7-9.3 c3.1-1,5.9-2.7,8.3-4.8L65,54l5-9l-6.4-6.4c0.3-1.5,0.4-3,0.4-4.6s-0.2-3.1-0.4-4.6L70,23l-5-9l-9.1,2.1c-2.4-2.1-5.2-3.8-8.3-4.8 L45,2L45,2z"/><g><path fill="#36404d" d="M51 34L40 20 29 34 36 34 36 48 44 48 44 34z"/></g></svg>
