<?xml version="1.0" encoding="iso-8859-1"?>
<!-- Generator: Adobe Illustrator 23.0.3, SVG Export Plug-In . SVG Version: 6.00 Build 0)  -->
<svg version="1.1" id="Layer_1" xmlns="http://www.w3.org/2000/svg" xmlns:xlink="http://www.w3.org/1999/xlink" x="0px" y="0px"
	 viewBox="0 0 48 48" style="enable-background:new 0 0 48 48;" xml:space="preserve">
<radialGradient id="SVGID_1_" cx="995.8414" cy="-405.4786" r="25.29" gradientTransform="matrix(0.7071 -0.7071 -0.7071 -0.7071 -966.8606 441.3478)" gradientUnits="userSpaceOnUse">
	<stop  offset="0.752" style="stop-color:#076CB3"/>
	<stop  offset="0.825" style="stop-color:#138CD2"/>
	<stop  offset="0.865" style="stop-color:#1898DE"/>
	<stop  offset="1" style="stop-color:#199AE0"/>
</radialGradient>
<path style="fill:url(#SVGID_1_);" d="M12.933,8.135L8,14.174v-9.54c0-0.528,0.639-0.792,1.013-0.419L12.933,8.135z"/>
<linearGradient id="SVGID_2_" gradientUnits="userSpaceOnUse" x1="24.69" y1="20.0867" x2="23.2718" y2="28.1304">
	<stop  offset="0" style="stop-color:#32BDEF"/>
	<stop  offset="1" style="stop-color:#1EA2E4"/>
</linearGradient>
<circle style="fill:url(#SVGID_2_);" cx="24" cy="24" r="4"/>
<linearGradient id="SVGID_3_" gradientUnits="userSpaceOnUse" x1="35.2663" y1="3.0901" x2="14.8408" y2="41.5156">
	<stop  offset="0" style="stop-color:#32BDEF"/>
	<stop  offset="1" style="stop-color:#1EA2E4"/>
</linearGradient>
<path style="fill:url(#SVGID_3_);" d="M43.972,22.924C43.422,12.428,34.53,4.01,24.02,4c-5.39-0.005-10.273,2.132-13.872,5.594
	l0.044,0.004C9.399,10.358,8.659,11.171,8,12.051v2.157C8,14.645,8.355,15,8.792,15h9.573c0.529,0,0.793-0.639,0.42-1.012
	l-2.695-2.695c0.13-0.082,0.266-0.154,0.399-0.232c-0.004-0.003-0.007-0.007-0.011-0.01c2.27-1.327,4.909-2.09,7.739-2.05
	c7.836,0.112,14.414,6.475,14.767,14.305C39.372,31.906,32.514,39,24,39c-5.721,0-10.68-3.211-13.208-7.921
	c-0.135-0.252-0.446-0.345-0.692-0.199l-3.441,2.05c-0.232,0.138-0.318,0.439-0.188,0.675C9.87,39.797,16.439,44,24,44
	C35.402,44,44.576,34.458,43.972,22.924z"/>
</svg>