<svg xmlns="http://www.w3.org/2000/svg"  viewBox="0 0 80 80" width="480px" height="480px"><path fill="#ffeea3" d="M61.9 1.5A6.5 6.5 0 1 0 61.9 14.5A6.5 6.5 0 1 0 61.9 1.5Z"/><path fill="#ba9b48" d="M61.9,15c-3.9,0-7-3.1-7-7s3.1-7,7-7s7,3.1,7,7S65.8,15,61.9,15z M61.9,2c-3.3,0-6,2.7-6,6s2.7,6,6,6 s6-2.7,6-6S65.2,2,61.9,2z"/><path fill="#ffeea3" d="M74.5,29v20c0,1.9-1.6,3.5-3.5,3.5c-0.2,0-0.3,0-0.5,0V73c0,1.9-1.6,3.5-3.5,3.5s-3.5-1.6-3.5-3.5 V50.5h-3v22.4c0,2-1.5,3.6-3.5,3.6c-1.9,0-3.5-1.6-3.5-3.5V52.5c-0.2,0-0.3,0-0.5,0c-1.9,0-3.5-1.6-3.5-3.5V29 c0-6.3,5.2-11.5,11.5-11.5h2C69.3,17.5,74.5,22.7,74.5,29z"/><path fill="#788b9c" d="M41.6,29.3l-0.9-0.4c2.2-4.5,3.3-10.2,3.3-17.4c0-3.8-1.4-5-10-5v-1c8.8,0,11,1.2,11,6 C45,18.9,43.9,24.7,41.6,29.3z"/><path fill="#36404d" d="M25,41.5v-1c6.5,0,12.5-4.7,16.1-12.5l0.9,0.4C38.3,36.6,31.9,41.5,25,41.5z"/><path fill="#788b9c" d="M8.4,29.2C6.1,24.6,5,18.8,5,11.5c0-4.8,2.3-6,11-6v1c-8.6,0-10,1.2-10,5c0,7.2,1.1,12.8,3.3,17.3 L8.4,29.2z"/><path fill="#36404d" d="M25,41.5c-6.9,0-13.3-4.9-17-13.1L8.9,28c3.6,7.9,9.6,12.5,16.1,12.5V41.5z"/><path fill="#b6c9d6" d="M34.8 3A3.8 3.8 0 1 0 34.8 10.6A3.8 3.8 0 1 0 34.8 3Z"/><path fill="#788b9c" d="M34.8,11c-2.3,0-4.3-1.9-4.3-4.3s1.9-4.3,4.3-4.3S39,4.4,39,6.8S37.1,11,34.8,11z M34.8,3.5 c-1.8,0-3.3,1.5-3.3,3.3S33,10,34.8,10S38,8.5,38,6.8S36.5,3.5,34.8,3.5z"/><path fill="#b6c9d6" d="M15.2 3A3.8 3.8 0 1 0 15.2 10.6A3.8 3.8 0 1 0 15.2 3Z"/><path fill="#788b9c" d="M15.2,11c-2.4,0-4.3-1.9-4.3-4.3s1.9-4.3,4.3-4.3s4.3,1.9,4.3,4.3S17.6,11,15.2,11z M15.2,3.5 c-1.8,0-3.3,1.5-3.3,3.3s1.5,3.3,3.3,3.3c1.8,0,3.3-1.5,3.3-3.3S17,3.5,15.2,3.5z"/><path fill="#ba9b48" d="M67,77c-2.2,0-4-1.8-4-4V51h-2v21.9c0,2.3-1.8,4.1-4,4.1c-2.2,0-4-1.8-4-4V30h1v43c0,1.7,1.3,3,3,3 c1.7,0,3-1.4,3-3.1V50h4v23c0,1.7,1.3,3,3,3s3-1.3,3-3V30h1v43C71,75.2,69.2,77,67,77z"/><path fill="#ba9b48" d="M71,53v-1c1.7,0,3-1.3,3-3V29c0-6.1-4.9-11-11-11h-2c-6.1,0-11,4.9-11,11v20c0,1.7,1.3,3,3,3v1 c-2.2,0-4-1.8-4-4V29c0-6.6,5.4-12,12-12h2c6.6,0,12,5.4,12,12v20C75,51.2,73.2,53,71,53z"/><path fill="#bae0bd" d="M53.5 49.7L53.5 42.5 70.6 42.5 70.6 49.7 62 51.6z"/><path fill="#5e9c76" d="M62,52.1l-9-2V42h18v8.1L62,52.1z M54,49.3l8,1.8l8-1.8V43H54V49.3z"/><path fill="#36404d" d="M44.5,62c-10.8,0-20-8.7-20-19v-1.8h1V43c0,9.8,8.7,18,19,18c9.9,0,17-7.6,17-18v-7.4h1V43 C62.5,53.8,54.8,62,44.5,62z"/><path fill="#b6c9d6" d="M61.9 23.5A6.5 6.5 0 1 0 61.9 36.5A6.5 6.5 0 1 0 61.9 23.5Z"/><path fill="#788b9c" d="M61.9,37c-3.9,0-7-3.1-7-7s3.1-7,7-7s7,3.1,7,7S65.8,37,61.9,37z M61.9,24c-3.3,0-6,2.7-6,6 s2.7,6,6,6s6-2.7,6-6S65.2,24,61.9,24z"/></svg>
