<svg xmlns="http://www.w3.org/2000/svg"  viewBox="0 0 80 80" width="480px" height="480px"><path fill="#768898" d="M20 8H78V9H20zM20 24H70V25H20zM20 40H62V41H20zM20 56H54V57H20zM20 72H48V73H20z"/><path fill="#d9eefb" d="M3.5 3.5H13.5V13.5H3.5z"/><path fill="#7290bb" d="M14,14H3V3h11V14z M4,13h9V4H4V13z"/><path fill="#d9eefb" d="M3.5 67.5H13.5V77.5H3.5z"/><path fill="#7290bb" d="M14,78H3V67h11V78z M4,77h9v-9H4V77z"/><path fill="#d9eefb" d="M3.5 51.5H13.5V61.5H3.5z"/><path fill="#7290bb" d="M14,62H3V51h11V62z M4,61h9v-9H4V61z"/><g><path fill="#d9eefb" d="M3.5 35.5H13.5V45.5H3.5z"/><path fill="#7290bb" d="M14,46H3V35h11V46z M4,45h9v-9H4V45z"/></g><g><path fill="#d9eefb" d="M3.5 19.5H13.5V29.5H3.5z"/><path fill="#7290bb" d="M14,30H3V19h11V30z M4,29h9v-9H4V29z"/></g></svg>
