<svg xmlns="http://www.w3.org/2000/svg"  viewBox="0 0 80 80" width="480px" height="480px" baseProfile="basic"><rect width="19.092" height="24.456" x="50.351" y="7.876" fill="#b0c1d4" transform="rotate(-45.001 59.897 20.104)"/><path fill="#66798f" d="M58,5.414L74.586,22L61.793,34.793L45.207,18.207L58,5.414 M58,4L43.793,18.207l18,18L76,22L58,4	L58,4z"/><path fill="#66798f" d="M59.246,16.496l-2.25,2.25l-2.25-2.25l2.25-2.25L59.246,16.496z M63.504,20.754l-2.25,2.25l2.25,2.25	l2.25-2.25L63.504,20.754z"/><path fill="#8bb7f0" d="M23.092,75.5c-4.966,0-9.635-1.934-13.146-5.445C6.434,66.543,4.5,61.874,4.5,56.908	c0-4.966,1.934-9.635,5.445-13.146L40,13.707L66.293,40L36.238,70.055C32.727,73.566,28.058,75.5,23.092,75.5z"/><path fill="#4e7ab5" d="M40,14.414L65.586,40L35.885,69.701C32.468,73.118,27.924,75,23.092,75s-9.376-1.882-12.793-5.299	C6.882,66.284,5,61.741,5,56.908c0-4.833,1.882-9.376,5.299-12.793L40,14.414 M40,13L9.592,43.408c-7.456,7.456-7.456,19.544,0,27v0	C13.32,74.136,18.206,76,23.092,76c4.886,0,9.772-1.864,13.5-5.592L67,40L40,13L40,13z"/><path fill="#4e7ab5" d="M24.25,50c3.171,0,5.75,2.579,5.75,5.75s-2.579,5.75-5.75,5.75s-5.75-2.579-5.75-5.75	S21.079,50,24.25,50 M24.25,49c-3.728,0-6.75,3.022-6.75,6.75s3.022,6.75,6.75,6.75S31,59.478,31,55.75S27.978,49,24.25,49L24.25,49	z"/></svg>
