<svg xmlns="http://www.w3.org/2000/svg"  viewBox="0 0 80 80" width="480px" height="480px"><path fill="#c7c0e2" d="M34.868,78l-2.025-9.402l-0.29-0.076c-5.09-1.364-9.722-4.028-13.405-7.714l-0.211-0.211 l-8.789,2.551l-5.13-8.883l7.219-6.257l-0.08-0.286c-0.692-2.597-1.042-5.193-1.042-7.722s0.35-5.13,1.042-7.722l-0.818-0.661 l-6.404-5.83l5.13-8.883l8.772,2.314l0.211-0.211c3.682-3.682,8.199-6.196,13.289-7.555l0.29-0.08l2.243-8.546h10.255l2.318,8.261 l0.286,0.076c5.09,1.364,9.726,4.028,13.409,7.714l0.211,0.211l8.627-2.29l5.13,8.883l-6.345,6.311l0.076,0.286 c0.696,2.597,1.046,5.193,1.046,7.722s-0.35,5.13-1.046,7.722l-0.076,0.29l6.859,6.633l-5.13,8.883l-9.142-2.617l-0.215,0.215 C57.453,64.809,45.128,78,45.128,78H34.868z M40,24.293c-8.661,0-15.707,7.046-15.707,15.707S31.339,55.707,40,55.707 S55.707,48.661,55.707,40S48.661,24.293,40,24.293z"/><path fill="#eeebf7" d="M40,62c-12.131,0-22-9.869-22-22s9.869-22,22-22s22,9.869,22,22S52.131,62,40,62z M40,31.302 c-4.797,0-8.698,3.901-8.698,8.698s3.901,8.698,8.698,8.698c4.797,0,8.698-3.901,8.698-8.698S44.797,31.302,40,31.302z"/><path fill="#b6c9d6" d="M46.824,79.5c-0.621,0-1.205-0.242-1.644-0.681c-0.905-0.906-0.905-2.38,0-3.286l11.252-10.728 l2.857,2.672l-10.83,11.351C48.028,79.258,47.444,79.5,46.824,79.5z"/><path fill="#788b9c" d="M56.437,65.493l2.143,2.004L48.113,78.466C47.769,78.81,47.311,79,46.824,79 c-0.487,0-0.945-0.19-1.29-0.534c-0.711-0.711-0.711-1.868-0.017-2.562L56.437,65.493 M56.43,64.118L44.827,75.18 c-1.103,1.103-1.103,2.891,0,3.993C45.378,79.724,46.101,80,46.824,80s1.445-0.276,1.997-0.827L60,67.457L56.43,64.118 L56.43,64.118z"/><path fill="#d1edff" d="M66.5 44.5A13 13 0 1 0 66.5 70.5A13 13 0 1 0 66.5 44.5Z"/><path fill="#788b9c" d="M66.5,45C73.393,45,79,50.607,79,57.5S73.393,70,66.5,70S54,64.393,54,57.5S59.607,45,66.5,45 M66.5,44C59.044,44,53,50.044,53,57.5S59.044,71,66.5,71S80,64.956,80,57.5S73.956,44,66.5,44L66.5,44z"/><path fill="#8b75a1" d="M42,77.177c0-0.06,0.015-0.117,0.017-0.177h-6.666l-2.109-8.43l-0.141-0.574l-0.57-0.148 c-4.914-1.316-9.391-3.891-12.941-7.449l-0.418-0.418l-0.566,0.164l-8.324,2.379l-4.648-8.047l6.25-6.043l0.422-0.41l-0.152-0.566 c-0.672-2.508-1.008-5.016-1.008-7.457s0.34-4.949,1.008-7.457l0.152-0.566l-0.422-0.41l-6.25-6.043l4.648-8.047l8.324,2.379 l0.566,0.164l0.418-0.418c3.551-3.559,8.027-6.133,12.941-7.449l0.57-0.148l0.141-0.574L35.352,3h9.297l2.109,8.43l0.141,0.574 l0.57,0.148c4.914,1.316,9.391,3.891,12.941,7.449l0.418,0.418l0.566-0.164l8.324-2.383l4.648,8.051l-6.25,6.043l-0.422,0.41 l0.152,0.566c0.672,2.508,1.008,5.016,1.008,7.457c0,0.722-0.039,1.451-0.098,2.183c0.332,0.049,0.665,0.095,0.99,0.165 c0.065-0.775,0.108-1.556,0.108-2.348c0-2.676-0.383-5.25-1.043-7.715l6.809-6.586l-5.426-9.402l-9.078,2.598 c-3.648-3.652-8.254-6.332-13.391-7.707L45.43,2H34.57l-2.297,9.188c-5.137,1.375-9.742,4.055-13.391,7.707l-9.078-2.594 l-5.43,9.402l6.809,6.582c-0.656,2.465-1.043,5.043-1.043,7.715c0,2.676,0.387,5.25,1.043,7.715l-6.809,6.586l5.43,9.402 l9.078-2.598c3.648,3.652,8.254,6.332,13.391,7.707L34.57,78h7.51C42.034,77.73,42,77.456,42,77.177z"/><g><path fill="#8b75a1" d="M31,40c0,4.965,4.035,9,9,9s9-4.035,9-9s-4.035-9-9-9S31,35.035,31,40z M48,40c0,4.418-3.582,8-8,8 s-8-3.582-8-8s3.582-8,8-8S48,35.582,48,40z"/></g></svg>
