<svg xmlns="http://www.w3.org/2000/svg"  viewBox="0 0 80 80" width="480px" height="480px"><path fill="#8bb7f0" d="M40,69.5c-8.375,0-16.388-3.584-21.982-9.834L17.869,59.5H10c-5.238,0-9.5-4.262-9.5-9.5V30 c0-5.238,4.262-9.5,9.5-9.5h7.869l0.149-0.166C23.612,14.084,31.625,10.5,40,10.5s16.388,3.584,21.982,9.834l0.149,0.166H70 c5.238,0,9.5,4.262,9.5,9.5v20c0,5.238-4.262,9.5-9.5,9.5h-7.869l-0.149,0.166C56.388,65.916,48.375,69.5,40,69.5z"/><path fill="#4e7ab5" d="M40,11c8.233,0,16.11,3.523,21.61,9.667L61.908,21h0.447H70c4.963,0,9,4.037,9,9v20 c0,4.963-4.037,9-9,9h-7.645h-0.447l-0.298,0.333C56.11,65.477,48.233,69,40,69s-16.11-3.523-21.61-9.667L18.092,59h-0.447H10 c-4.963,0-9-4.037-9-9V30c0-4.963,4.037-9,9-9h7.645h0.447l0.298-0.333C23.89,14.523,31.767,11,40,11 M40,10 c-8.884,0-16.862,3.864-22.355,10H10C4.477,20,0,24.477,0,30v20c0,5.523,4.477,10,10,10h7.645C23.138,66.136,31.116,70,40,70 s16.862-3.864,22.355-10H70c5.523,0,10-4.477,10-10V30c0-5.523-4.477-10-10-10h-7.645C56.862,13.864,48.884,10,40,10L40,10z"/><path fill="#fff" d="M23.948 49h-4.517l-1.982-11.677L15.514 49h-4.471l-4.24-18.951h5.071l1.474 11.083 1.935-11.083h4.471l1.889 11.083L23.163 30h4.978L23.948 49zM32.588 28.911c1.465 0 2.649 1.095 2.649 2.449s-1.188 2.449-2.649 2.449c-1.465 0-2.649-1.095-2.649-2.449C29.938 30.009 31.123 28.911 32.588 28.911zM30.262 35.197h4.56v13.705h-4.56V35.197zM70 21H49c-4.971 0-9 4.029-9 9v1 16c0 4.78-2.1 9.08-5.42 12H49h21c.276 0 .549-.014.819-.041C75.405 58.544 79 54.694 79 50V30C79 25.029 74.971 21 70 21z"/><path fill="#8bb7f0" d="M66.025 35.246H70.58800000000001V48.951H66.025zM68.351 28.96A2.649 2.449 0 1 0 68.351 33.858 2.649 2.449 0 1 0 68.351 28.96zM48.052 30.098L63.212 30.098 63.212 34.551 52.935 34.551 52.935 38.757 62.2 38.757 62.2 43.16 52.935 43.16 52.935 48.902 48.052 48.902z"/></svg>
