<svg xmlns="http://www.w3.org/2000/svg"  viewBox="0 0 100 100" width="500px" height="500px"><path fill="#c8ede6" d="M87.234,55.551c0.3-0.616,0.566-1.264,0.796-1.943c2.633-7.77-1.349-17.078-9.733-19.325 C77.391,22.9,69.391,15.09,60.356,13.758c-10.341-1.525-19.814,5.044-22.966,15.485c-3.799-1.346-7.501-1.182-10.99,0.857 c-1.583,0.732-3.031,1.812-4.33,3.233c-1.907,2.086-3.147,4.719-3.652,7.495c-0.748,0.118-1.483,0.236-2.176,0.484 c-4.04,1.449-6.589,4.431-7.288,8.923c-0.435,2.797,0.443,5.587,0.933,6.714c1.935,4.455,6.422,6.98,10.981,6.312 c0.227-0.033,0.557,0.069,0.752,0.233c0.241,7.12,3.698,13.417,8.884,17.014c8.321,5.772,19.027,3.994,25.781-3.921 c2.894,2.96,6.338,4.398,10.384,3.876c4.023-0.519,7.147-2.739,9.426-6.349c1.053,0.283,2.051,0.691,3.083,0.804 c4.042,0.442,7.297-1.184,9.732-4.8c0.083-0.124,0.203-0.219,0.306-0.328c0.348-0.798,0.696-1.596,1.044-2.394 c0.155-1.211,0.429-2.423,0.443-3.632C90.742,60.508,89.411,57.54,87.234,55.551z"/><path fill="#fff" d="M15.899 49H5.869c-.276 0-.5-.224-.5-.5s.224-.5.5-.5h10.03c.276 0 .5.224.5.5S16.176 49 15.899 49zM19.28 48.5c0-.276-.224-.5-.5-.5h-1.446c-.276 0-.5.224-.5.5s.224.5.5.5h1.446C19.057 49 19.28 48.776 19.28 48.5zM23.335 48.5c0-.276-.224-.5-.5-.5h-2.546c-.276 0-.5.224-.5.5s.224.5.5.5h2.546C23.112 49 23.335 48.776 23.335 48.5zM23.335 50.5c0-.276-.224-.5-.5-.5h-9.616c-.276 0-.5.224-.5.5s.224.5.5.5h9.616C23.112 51 23.335 50.776 23.335 50.5zM11.987 50.5c0-.276-.224-.5-.5-.5h-.58c-.276 0-.5.224-.5.5s.224.5.5.5h.58C11.763 51 11.987 50.776 11.987 50.5zM9.611 50.5c0-.276-.224-.5-.5-.5H7.654c-.276 0-.5.224-.5.5s.224.5.5.5h1.457C9.387 51 9.611 50.776 9.611 50.5zM18.746 46.5c0-.276-.224-.5-.5-.5h-5.027c-.276 0-.5.224-.5.5s.224.5.5.5h5.027C18.523 47 18.746 46.776 18.746 46.5zM18.746 44.5c0-.276-.224-.5-.5-.5h-1.257c-.276 0-.5.224-.5.5s.224.5.5.5h1.257C18.523 45 18.746 44.776 18.746 44.5zM15.477 52.5c0-.276-.224-.5-.5-.5h-1.758c-.276 0-.5.224-.5.5s.224.5.5.5h1.758C15.254 53 15.477 52.776 15.477 52.5zM86.744 67h-10.03c-.276 0-.5-.224-.5-.5s.224-.5.5-.5h10.031c.276 0 .5.224.5.5S87.021 67 86.744 67zM90.125 66.5c0-.276-.224-.5-.5-.5h-1.446c-.276 0-.5.224-.5.5s.224.5.5.5h1.446C89.902 67 90.125 66.776 90.125 66.5zM94.18 66.5c0-.276-.224-.5-.5-.5h-2.546c-.276 0-.5.224-.5.5s.224.5.5.5h2.546C93.956 67 94.18 66.776 94.18 66.5zM92.154 62.5c0-.276-.224-.5-.5-.5h-9.616c-.276 0-.5.224-.5.5s.224.5.5.5h9.616C91.93 63 92.154 62.776 92.154 62.5zM80.806 62.5c0-.276-.224-.5-.5-.5h-.58c-.276 0-.5.224-.5.5s.224.5.5.5h.58C80.583 63 80.806 62.776 80.806 62.5zM78.429 62.5c0-.276-.224-.5-.5-.5h-1.456c-.276 0-.5.224-.5.5s.224.5.5.5h1.456C78.206 63 78.429 62.776 78.429 62.5zM89.591 64.5c0-.276-.224-.5-.5-.5h-5.027c-.276 0-.5.224-.5.5s.224.5.5.5h5.027C89.367 65 89.591 64.776 89.591 64.5zM89.591 62.5c0-.276-.224-.5-.5-.5h-1.257c-.276 0-.5.224-.5.5s.224.5.5.5h1.257C89.367 63 89.591 62.776 89.591 62.5zM83.108 64.5c0-.276-.224-.5-.5-.5H80.85c-.276 0-.5.224-.5.5s.224.5.5.5h1.758C82.885 65 83.108 64.776 83.108 64.5z"/><path fill="#fdfcef" d="M71.337,46.423c0,0,11.691,0,11.762,0c2.7,0,4.888-2.189,4.888-4.889 c0-2.355-1.666-4.321-3.884-4.784c0.026-0.206,0.043-0.415,0.043-0.628c0-2.796-2.267-5.063-5.063-5.063 c-1.651,0-3.113,0.794-4.037,2.017c-0.236-3.113-3.017-5.514-6.27-5.116c-2.379,0.291-4.346,2.13-4.784,4.486 c-0.14,0.756-0.126,1.489,0.014,2.177c-0.638-0.687-1.546-1.119-2.557-1.119c-1.85,0-3.361,1.441-3.48,3.261 c-0.84-0.186-1.754-0.174-2.717,0.188c-1.84,0.691-3.15,2.423-3.227,4.387c-0.109,2.789,2.12,5.085,4.885,5.085 c0.21,0,0.948,0,1.118,0h10.151"/><path fill="#472b29" d="M83.099,46.923H71.337c-0.276,0-0.5-0.224-0.5-0.5s0.224-0.5,0.5-0.5h11.762 c2.42,0,4.389-1.969,4.389-4.389c0-2.066-1.466-3.873-3.486-4.295c-0.255-0.053-0.426-0.293-0.394-0.552 c0.023-0.186,0.039-0.374,0.039-0.565c0-2.517-2.047-4.563-4.562-4.563c-1.438,0-2.765,0.663-3.638,1.818 c-0.125,0.166-0.338,0.237-0.54,0.178c-0.199-0.059-0.342-0.234-0.357-0.441c-0.104-1.377-0.779-2.671-1.85-3.549 c-1.083-0.888-2.456-1.282-3.86-1.109c-2.166,0.266-3.956,1.943-4.353,4.081c-0.124,0.667-0.12,1.335,0.013,1.986 c0.044,0.22-0.062,0.442-0.262,0.544c-0.2,0.104-0.443,0.06-0.595-0.104c-0.575-0.618-1.353-0.959-2.19-0.959 c-1.569,0-2.878,1.228-2.981,2.794c-0.01,0.146-0.082,0.279-0.199,0.366c-0.117,0.089-0.268,0.12-0.408,0.089 c-0.841-0.185-1.637-0.132-2.433,0.167c-1.669,0.627-2.835,2.209-2.903,3.938c-0.047,1.207,0.387,2.35,1.221,3.218 c0.835,0.869,1.959,1.348,3.164,1.348h11.269c0.276,0,0.5,0.224,0.5,0.5s-0.224,0.5-0.5,0.5H56.912 c-1.479,0-2.858-0.588-3.884-1.654c-1.025-1.066-1.558-2.469-1.5-3.95c0.083-2.126,1.51-4.069,3.55-4.835 c0.8-0.301,1.626-0.398,2.468-0.299c0.377-1.822,1.998-3.182,3.905-3.182c0.684,0,1.354,0.18,1.944,0.51 c0-0.386,0.035-0.772,0.106-1.159c0.477-2.562,2.621-4.573,5.215-4.891c1.679-0.205,3.32,0.266,4.616,1.328 c1.003,0.823,1.716,1.951,2.038,3.193c1.012-0.916,2.319-1.426,3.714-1.426c3.067,0,5.562,2.496,5.562,5.563 c0,0.083-0.002,0.166-0.007,0.248c2.254,0.673,3.848,2.776,3.848,5.164C88.488,44.507,86.071,46.923,83.099,46.923z"/><path fill="#fdfcef" d="M68.504,35.655c-1.808-0.119-3.365,1.13-3.476,2.789c-0.014,0.206-0.005,0.409,0.025,0.606 c-0.349-0.394-0.865-0.661-1.458-0.7c-1.085-0.071-2.022,0.645-2.158,1.62c-0.197-0.054-0.403-0.09-0.616-0.104 c-1.582-0.104-2.944,0.989-3.042,2.441"/><path fill="#472b29" d="M57.78,42.556c-0.006,0-0.012,0-0.017-0.001c-0.138-0.009-0.242-0.128-0.233-0.266 c0.107-1.587,1.588-2.789,3.308-2.674c0.137,0.009,0.273,0.026,0.409,0.053c0.274-0.968,1.256-1.645,2.366-1.567 c0.425,0.027,0.823,0.159,1.164,0.382c0-0.019,0.002-0.037,0.003-0.056c0.12-1.795,1.787-3.16,3.742-3.021 c0.138,0.009,0.242,0.128,0.233,0.266c-0.009,0.138-0.124,0.255-0.266,0.232c-1.651-0.105-3.108,1.037-3.21,2.557 c-0.012,0.184-0.004,0.37,0.023,0.553c0.017,0.109-0.041,0.217-0.141,0.264s-0.219,0.022-0.293-0.061 c-0.323-0.365-0.78-0.584-1.287-0.617c-0.951-0.034-1.775,0.556-1.894,1.404c-0.01,0.071-0.05,0.135-0.11,0.175 c-0.06,0.039-0.133,0.051-0.204,0.032c-0.187-0.051-0.377-0.083-0.567-0.097c-1.44-0.092-2.687,0.896-2.775,2.209 C58.02,42.455,57.91,42.556,57.78,42.556z"/><path fill="#fdfcef" d="M85.079,37.323c-1.699-0.801-3.664-0.234-4.389,1.267c-0.09,0.186-0.157,0.379-0.201,0.574"/><path fill="#472b29" d="M80.489,39.414c-0.018,0-0.037-0.002-0.056-0.006c-0.134-0.031-0.219-0.165-0.188-0.3 c0.049-0.217,0.123-0.428,0.219-0.627c0.783-1.621,2.902-2.239,4.721-1.385c0.125,0.06,0.179,0.208,0.12,0.333 c-0.059,0.126-0.209,0.176-0.333,0.12c-1.574-0.744-3.394-0.227-4.058,1.149c-0.08,0.165-0.141,0.34-0.182,0.521 C80.706,39.336,80.603,39.414,80.489,39.414z"/><path fill="#fffef4" d="M50 28.071A23.258 23.258 0 1 0 50 74.587A23.258 23.258 0 1 0 50 28.071Z"/><path fill="#472b29" d="M49.875 66c-8.236 0-14.938-6.716-14.938-14.971 0-2.708.729-5.362 2.109-7.674.07-.119.225-.156.343-.087.119.071.157.225.087.343-1.334 2.234-2.039 4.8-2.039 7.418 0 7.979 6.477 14.471 14.438 14.471 1.949 0 3.84-.383 5.619-1.138.131-.056.273.007.328.133.054.127-.006.273-.133.328C53.848 65.604 51.892 66 49.875 66zM57.491 63.869c-.084 0-.166-.043-.214-.12-.071-.118-.034-.271.084-.344 1.408-.858 2.652-1.942 3.697-3.223.086-.107.244-.123.352-.035.106.087.123.244.035.352-1.08 1.324-2.367 2.445-3.824 3.334C57.581 63.857 57.536 63.869 57.491 63.869zM62.235 59.234c-.047 0-.094-.013-.135-.04-.116-.074-.15-.229-.075-.345.333-.52.637-1.066.902-1.628.059-.125.206-.179.333-.118.124.059.178.208.118.333-.274.58-.589 1.146-.934 1.683C62.398 59.193 62.317 59.234 62.235 59.234zM63.755 56.106c-.027 0-.055-.004-.082-.014-.13-.045-.199-.188-.154-.318.526-1.522.794-3.118.794-4.745 0-7.979-6.477-14.471-14.438-14.471-2.404 0-4.784.604-6.882 1.747-.117.064-.272.022-.339-.101-.065-.121-.021-.272.101-.339 2.17-1.183 4.633-1.808 7.12-1.808 8.236 0 14.938 6.716 14.938 14.971 0 1.683-.276 3.334-.821 4.909C63.955 56.042 63.858 56.106 63.755 56.106zM50.5 50A1.5 1.5 0 1 0 50.5 53 1.5 1.5 0 1 0 50.5 50z"/><path fill="#472b29" d="M57.071,55.948c-0.085,0-0.171-0.021-0.25-0.067l-6.714-3.877c-0.239-0.138-0.321-0.443-0.183-0.683 c0.138-0.238,0.444-0.32,0.683-0.183l6.714,3.877c0.239,0.138,0.321,0.443,0.183,0.683C57.412,55.858,57.243,55.948,57.071,55.948z"/><path fill="#472b29" d="M50 51.777c-.085 0-.171-.021-.25-.067-.239-.138-.321-.443-.183-.683l5.814-10.071c.138-.239.444-.32.683-.183.239.138.321.443.183.683l-5.814 10.071C50.341 51.688 50.172 51.777 50 51.777zM50.5 41c-.276 0-.5-.224-.5-.5v-2c0-.276.224-.5.5-.5s.5.224.5.5v2C51 40.776 50.776 41 50.5 41z"/><g><path fill="#472b29" d="M50.5,64c-0.276,0-0.5-0.224-0.5-0.5v-2c0-0.276,0.224-0.5,0.5-0.5s0.5,0.224,0.5,0.5v2 C51,63.776,50.776,64,50.5,64z"/></g><g><path fill="#472b29" d="M39.5,52h-2c-0.276,0-0.5-0.224-0.5-0.5s0.224-0.5,0.5-0.5h2c0.276,0,0.5,0.224,0.5,0.5 S39.776,52,39.5,52z"/></g><g><path fill="#472b29" d="M62.5,52h-2c-0.276,0-0.5-0.224-0.5-0.5s0.224-0.5,0.5-0.5h2c0.276,0,0.5,0.224,0.5,0.5 S62.776,52,62.5,52z"/></g><g><path fill="#add4a1" d="M50.062,27.708c-5.984,0-11.433,2.262-15.56,5.967l-2.705-2.704l-0.015,9.404h9.593l-3.215-3.044 c3.199-2.762,7.344-4.458,11.903-4.458c10.088,0,18.265,8.174,18.265,18.257S60.15,69.388,50.062,69.388 c-10.088,0-18.265-8.174-18.265-18.257c0-2.37,0.506-4.24,1.328-6.318H27.74c-0.615,2.089-0.99,3.91-0.99,6.198 c0,12.869,10.437,23.302,23.312,23.302c12.875,0,23.313-10.433,23.313-23.302C73.375,38.141,62.938,27.708,50.062,27.708z"/><path fill="#472b29" d="M50.063,75.013c-13.24,0-24.013-10.768-24.013-24.002c0-2.436,0.407-4.318,1.018-6.396l0.148-0.503 h6.938l-0.378,0.958c-0.909,2.296-1.279,4.052-1.279,6.061c0,9.681,7.88,17.557,17.565,17.557s17.565-7.876,17.565-17.557 c0-9.682-7.88-17.558-17.565-17.558c-3.922,0-7.744,1.342-10.847,3.793l3.917,3.709H31.08l0.02-11.79l3.435,3.434 c4.342-3.688,9.83-5.711,15.528-5.711c13.24,0,24.013,10.768,24.013,24.003C74.075,64.245,63.303,75.013,50.063,75.013z M28.267,45.513c-0.496,1.767-0.816,3.425-0.816,5.498c0,12.463,10.144,22.602,22.612,22.602s22.612-10.139,22.612-22.602 S62.531,28.408,50.063,28.408c-5.574,0-10.934,2.056-15.093,5.788l-0.494,0.443l-1.981-1.981l-0.012,7.017h7.135l-2.5-2.367 l0.586-0.507c3.456-2.984,7.846-4.628,12.359-4.628c10.458,0,18.966,8.505,18.966,18.958s-8.508,18.957-18.966,18.957 s-18.966-8.504-18.966-18.957c0-2.252,0.454-4.043,1.016-5.618H28.267z"/></g><g><path fill="#472b29" d="M60.777,69.167c-0.084,0-0.167-0.043-0.214-0.12c-0.071-0.118-0.033-0.272,0.084-0.344 c2.013-1.217,3.79-2.757,5.284-4.576c0.088-0.107,0.246-0.122,0.352-0.035c0.107,0.088,0.123,0.245,0.035,0.352 c-1.53,1.864-3.351,3.44-5.411,4.688C60.866,69.155,60.821,69.167,60.777,69.167z"/></g><g><path fill="#472b29" d="M67.523,62.619c-0.047,0-0.094-0.013-0.136-0.04c-0.116-0.075-0.149-0.229-0.074-0.346 c0.48-0.744,0.915-1.521,1.29-2.311c0.06-0.124,0.207-0.177,0.333-0.118c0.125,0.059,0.178,0.208,0.118,0.333 c-0.384,0.809-0.829,1.604-1.321,2.367C67.686,62.579,67.605,62.619,67.523,62.619z"/></g><g><path fill="#472b29" d="M69.685,58.199c-0.027,0-0.055-0.005-0.082-0.014c-0.131-0.046-0.199-0.188-0.154-0.318 c0.753-2.161,1.135-4.428,1.135-6.737c0-11.329-9.257-20.547-20.636-20.547c-3.436,0-6.837,0.857-9.836,2.479 c-0.122,0.066-0.273,0.02-0.339-0.101c-0.065-0.122-0.021-0.273,0.101-0.339c3.072-1.662,6.556-2.54,10.074-2.54 c11.654,0,21.136,9.441,21.136,21.047c0,2.366-0.391,4.688-1.162,6.901C69.885,58.135,69.788,58.199,69.685,58.199z"/></g><g><path fill="#fdfcef" d="M36.178,76.287c1.883,0,3.517,0,3.54,0c2.11,0,3.821-1.674,3.821-3.739 c0-1.802-1.302-3.305-3.035-3.66c0.02-0.158,0.034-0.317,0.034-0.48c0-2.139-1.772-3.873-3.957-3.873 c-1.29,0-2.433,0.607-3.155,1.543c-0.185-2.381-2.358-4.218-4.9-3.913c-1.859,0.223-3.397,1.629-3.739,3.431 c-0.11,0.578-0.098,1.139,0.011,1.665c-0.498-0.525-1.208-0.856-1.998-0.856c-1.446,0-2.627,1.102-2.72,2.494 c-0.657-0.142-1.371-0.133-2.123,0.143c-1.438,0.528-2.462,1.853-2.522,3.356c-0.085,2.133,1.657,3.889,3.818,3.889 c0.164,0,0.741,0,0.874,0h7.934 M29.701,76.287h0.36"/><path fill="#472b29" d="M39.718,76.788h-3.54c-0.276,0-0.5-0.224-0.5-0.5s0.224-0.5,0.5-0.5h3.54 c1.831,0,3.321-1.453,3.321-3.239c0-1.524-1.108-2.858-2.636-3.17c-0.256-0.053-0.429-0.294-0.396-0.554 c0.018-0.137,0.03-0.275,0.03-0.417c0-1.86-1.551-3.373-3.457-3.373c-1.092,0-2.098,0.491-2.76,1.349 c-0.126,0.164-0.341,0.231-0.539,0.174c-0.198-0.06-0.339-0.234-0.355-0.44c-0.079-1.02-0.565-1.944-1.369-2.604 c-0.829-0.68-1.885-0.979-2.973-0.853c-1.646,0.197-3.006,1.442-3.307,3.027c-0.094,0.495-0.091,0.99,0.009,1.472 c0.045,0.219-0.06,0.441-0.258,0.545c-0.197,0.102-0.44,0.063-0.594-0.1c-0.428-0.451-1.009-0.7-1.635-0.7 c-1.169,0-2.145,0.891-2.221,2.027c-0.01,0.146-0.082,0.278-0.198,0.366c-0.116,0.087-0.264,0.12-0.406,0.089 c-0.639-0.138-1.243-0.098-1.846,0.125c-1.262,0.463-2.144,1.631-2.195,2.905c-0.035,0.876,0.283,1.709,0.895,2.346 c0.635,0.66,1.496,1.024,2.423,1.024h8.807c0.276,0,0.5,0.224,0.5,0.5s-0.224,0.5-0.5,0.5h-8.807 c-1.185,0-2.331-0.485-3.144-1.331c-0.803-0.836-1.219-1.929-1.173-3.078c0.067-1.675,1.212-3.204,2.849-3.806 c0.61-0.225,1.24-0.304,1.88-0.244c0.344-1.396,1.629-2.424,3.135-2.424c0.493,0,0.977,0.113,1.414,0.323 c0.009-0.242,0.037-0.484,0.083-0.727c0.381-2.009,2.096-3.585,4.17-3.833c1.365-0.167,2.685,0.218,3.726,1.071 c0.748,0.613,1.278,1.409,1.546,2.302c0.791-0.648,1.786-1.007,2.842-1.007c2.458,0,4.457,1.962,4.457,4.373 c0,0.034,0,0.068-0.001,0.103c1.764,0.555,3.003,2.188,3.003,4.038C44.039,74.886,42.101,76.788,39.718,76.788z M30.061,76.788 h-0.36c-0.276,0-0.5-0.224-0.5-0.5s0.224-0.5,0.5-0.5h0.36c0.276,0,0.5,0.224,0.5,0.5S30.337,76.788,30.061,76.788z"/><g><path fill="#472b29" d="M38.011,70.984c-0.018,0-0.036-0.002-0.055-0.006c-0.135-0.03-0.22-0.164-0.189-0.299 c0.037-0.164,0.094-0.325,0.17-0.479c0.604-1.224,2.272-1.677,3.722-1.007c0.125,0.058,0.18,0.206,0.122,0.331 c-0.058,0.126-0.207,0.179-0.332,0.122c-1.201-0.556-2.577-0.208-3.063,0.774c-0.058,0.118-0.102,0.242-0.13,0.367 C38.229,70.905,38.126,70.984,38.011,70.984z"/></g><g><path fill="#472b29" d="M32.852,76.788h-1.107c-0.276,0-0.5-0.224-0.5-0.5s0.224-0.5,0.5-0.5h1.107 c0.276,0,0.5,0.224,0.5,0.5S33.129,76.788,32.852,76.788z"/></g></g></svg>
