<svg xmlns="http://www.w3.org/2000/svg"  viewBox="0 0 80 80" width="480px" height="480px"><path fill="#8bb7f0" d="M22,77.5C11.248,77.5,2.5,68.752,2.5,58c0-3.736,1.061-7.368,3.066-10.502l0.152-0.201l32.82-37.901 l2.268,1.964L8.062,49.176C6.37,51.858,5.5,54.889,5.5,58c0,9.098,7.402,16.5,16.5,16.5c4.51,0,8.72-1.784,11.855-5.024 l38.498-46.495c1.39-1.853,2.146-4.162,2.146-6.52C74.5,10.417,69.582,5.5,63.538,5.5c-3.196,0-6.227,1.392-8.314,3.818 L22.637,47.752C21.9,48.685,21.5,49.861,21.5,51.077c0,2.99,2.433,5.423,5.423,5.423c1.702,0,3.272-0.776,4.308-2.128 l27.296-32.943l2.31,1.914L33.577,56.24c-1.589,2.077-4.01,3.26-6.654,3.26c-4.645,0-8.423-3.778-8.423-8.423 c0-1.893,0.646-3.749,1.817-5.227L52.943,7.369C55.604,4.276,59.467,2.5,63.538,2.5C71.236,2.5,77.5,8.763,77.5,16.461 c0,3.05-0.966,5.946-2.792,8.377L36.047,71.528C32.358,75.369,27.361,77.5,22,77.5z"/><path fill="#4e7ab5" d="M63.538,3C70.961,3,77,9.039,77,16.461c0,2.94-0.931,5.733-2.663,8.04L35.685,71.18 C32.07,74.933,27.211,77,22,77C11.523,77,3,68.477,3,58c0-3.628,1.026-7.155,2.968-10.202l0.129-0.173L38.59,10.102l1.512,1.309 L7.683,48.849l-0.05,0.058l-0.041,0.065C5.896,51.672,5,54.794,5,58c0,9.374,7.626,17,17,17c4.646,0,8.984-1.838,12.215-5.176 l0.027-0.028l0.025-0.03l38.503-46.504C74.208,21.343,75,18.927,75,16.461C75,10.142,69.858,5,63.538,5 c-3.342,0-6.51,1.455-8.698,3.997L22.234,47.456C21.438,48.463,21,49.749,21,51.077C21,54.343,23.657,57,26.923,57 c1.859,0,3.574-0.847,4.681-2.295l26.988-32.573l1.54,1.276L33.167,55.952C31.686,57.889,29.41,59,26.923,59 C22.554,59,19,55.446,19,51.077c0-1.78,0.607-3.526,1.689-4.89L53.32,7.698C55.888,4.712,59.613,3,63.538,3 M63.538,2 c-4.217,0-8.214,1.835-10.977,5.046L19.926,45.54C18.684,47.106,18,49.073,18,51.077C18,55.997,22.003,60,26.923,60 c2.801,0,5.384-1.276,7.039-3.441L61.54,23.276l-3.08-2.552L30.834,54.067C29.894,55.295,28.468,56,26.923,56 C24.208,56,22,53.792,22,51.077c0-1.122,0.367-2.177,1.019-3.001L55.603,9.644C57.596,7.328,60.488,6,63.538,6 C69.307,6,74,10.693,74,16.461c0,2.285-0.723,4.455-2.031,6.201L33.496,69.128C30.455,72.271,26.375,74,22,74 c-8.822,0-16-7.178-16-16c0-3.02,0.843-5.954,2.439-8.497l33.072-38.194l-3.023-2.618L5.318,46.998l-0.173,0.231 C3.088,50.443,2,54.168,2,58c0,11.028,8.972,20,20,20c5.499,0,10.624-2.186,14.432-6.153l38.676-46.708 C77,22.621,78,19.62,78,16.461C78,8.487,71.513,2,63.538,2L63.538,2z"/></svg>
