<svg xmlns="http://www.w3.org/2000/svg" viewBox="0 0 16 16">
  <!-- Source: files-community/Files@8ea6d30 src/Files.App.Controls/ThemedIcon/Styles/Icons.Common.xaml App.ThemedIcons.More, MIT. -->
  <path fill="#242424" d="m4.25,8c0,.69-.56,1.25-1.25,1.25s-1.25-.56-1.25-1.25.56-1.25,1.25-1.25,1.25.56,1.25,1.25Zm5,0c0,.69-.56,1.25-1.25,1.25s-1.25-.56-1.25-1.25.56-1.25,1.25-1.25,1.25.56,1.25,1.25Zm3.75,1.25c.69,0,1.25-.56,1.25-1.25s-.56-1.25-1.25-1.25-1.25.56-1.25,1.25.56,1.25,1.25,1.25Z"/>
</svg>
