<svg xmlns="http://www.w3.org/2000/svg" viewBox="0 0 16 16">
  <!-- Source: files-community/Files@8ea6d30 src/Files.App.Controls/ThemedIcon/Styles/Icons.New.xaml App.ThemedIcons.New.Folder, MIT. -->
  <path fill="#242424" d="m2.5,12c-.83,0-1.5-.67-1.5-1.5v-5.5h4.09c.4,0,.78-.16,1.06-.44l1.56-1.56h4.79c.83,0,1.5.67,1.5,1.5v2.1c.36.18.69.4,1,.66v-2.76c0-1.38-1.12-2.5-2.5-2.5h-4.79l-1.49-1.49c-.33-.33-.77-.51-1.24-.51h-2.48C1.12,0,0,1.12,0,2.5v8c0,1.38,1.12,2.5,2.5,2.5h3.71c-.09-.32-.15-.66-.18-1h-3.52ZM1,2.5c0-.83.67-1.5,1.5-1.5h2.48c.2,0,.39.08.53.22l1.28,1.28-1.35,1.35c-.09.09-.22.15-.35.15H1v-1.5Zm10.5,4.5c-2.49,0-4.5,2.01-4.5,4.5s2.01,4.5,4.5,4.5,4.5-2.01,4.5-4.5-2.01-4.5-4.5-4.5Zm2.35,4.85c-.09.09-.22.15-.35.15h-1.5v1.5c0,.13-.05.26-.15.35s-.22.15-.35.15-.26-.05-.35-.15-.15-.22-.15-.35v-1.5h-1.5c-.13,0-.26-.05-.35-.15-.09-.09-.15-.22-.15-.35s.05-.26.15-.35c.09-.09.22-.15.35-.15h1.5v-1.5c0-.13.05-.26.15-.35.09-.09.22-.15.35-.15s.26.05.35.15c.09.09.15.22.15.35v1.5h1.5c.13,0,.26.05.35.15s.15.22.15.35-.05.26-.15.35Z"/>
</svg>
