<svg xmlns="http://www.w3.org/2000/svg" viewBox="0 0 16 16">
  <!-- Source: files-community/Files@8ea6d30 src/Files.App.Controls/ThemedIcon/Styles/Icons.Common.xaml App.ThemedIcons.Refresh, MIT. -->
  <path fill="#242424" d="m2,8c0-3.31,2.69-6,6-6,1.78,0,3.37.77,4.47,2h-1.97c-.28,0-.5.22-.5.5s.22.5.5.5h3c.28,0,.5-.22.5-.5V1.5c0-.28-.22-.5-.5-.5s-.5.22-.5.5v1.6c-1.27-1.3-3.04-2.1-5-2.1-3.87,0-7,3.13-7,7s3.13,7,7,7,7-3.13,7-7c0-.18,0-.36-.02-.54-.02-.28-.26-.48-.54-.46-.28.02-.48.26-.46.54.01.15.02.31.02.46,0,3.31-2.69,6-6,6s-6-2.69-6-6Z"/>
</svg>
