<svg xmlns="http://www.w3.org/2000/svg" viewBox="0 0 28 28">
  <!-- Source: files-community/Files@8ea6d30 src/Files.App.Controls/ThemedIcon/Styles/Icons.SizeLayout28.xaml App.ThemedIcons.IconLayout.Details.28, MIT. -->
  <path fill="#242424" d="m11.5,6H3.5c-.28,0-.5.22-.5.5s.22.5.5.5h8c.28,0,.5-.22.5-.5s-.22-.5-.5-.5Zm5,1h8c.28,0,.5-.22.5-.5s-.22-.5-.5-.5h-8c-.28,0-.5.22-.5.5s.22.5.5.5Zm-5,4H3.5c-.28,0-.5.22-.5.5s.22.5.5.5h8c.28,0,.5-.22.5-.5s-.22-.5-.5-.5Zm13,0h-8c-.28,0-.5.22-.5.5s.22.5.5.5h8c.28,0,.5-.22.5-.5s-.22-.5-.5-.5Zm-13,5H3.5c-.28,0-.5.22-.5.5s.22.5.5.5h8c.28,0,.5-.22.5-.5s-.22-.5-.5-.5Zm13,0h-8c-.28,0-.5.22-.5.5s.22.5.5.5h8c.28,0,.5-.22.5-.5s-.22-.5-.5-.5Zm-13,5H3.5c-.28,0-.5.22-.5.5s.22.5.5.5h8c.28,0,.5-.22.5-.5s-.22-.5-.5-.5Zm13,0h-8c-.28,0-.5.22-.5.5s.22.5.5.5h8c.28,0,.5-.22.5-.5s-.22-.5-.5-.5Z"/>
</svg>
