<svg xmlns="http://www.w3.org/2000/svg" viewBox="0 0 28 28">
  <!-- Source: files-community/Files@8ea6d30 src/Files.App.Controls/ThemedIcon/Styles/Icons.SizeLayout28.xaml App.ThemedIcons.IconLayout.List.28, MIT. -->
  <path fill="#242424" d="m9.75,3h-4.5c-1.24,0-2.25,1.01-2.25,2.25v4.5c0,1.24,1.01,2.25,2.25,2.25h4.5c1.24,0,2.25-1.01,2.25-2.25v-4.5c0-1.24-1.01-2.25-2.25-2.25Zm1.25,6.75c0,.69-.56,1.25-1.25,1.25h-4.5c-.69,0-1.25-.56-1.25-1.25v-4.5c0-.69.56-1.25,1.25-1.25h4.5c.69,0,1.25.56,1.25,1.25v4.5Zm-1.25,6.25h-4.5c-1.24,0-2.25,1.01-2.25,2.25v4.5c0,1.24,1.01,2.25,2.25,2.25h4.5c1.24,0,2.25-1.01,2.25-2.25v-4.5c0-1.24-1.01-2.25-2.25-2.25Zm1.25,6.75c0,.69-.56,1.25-1.25,1.25h-4.5c-.69,0-1.25-.56-1.25-1.25v-4.5c0-.69.56-1.25,1.25-1.25h4.5c.69,0,1.25.56,1.25,1.25v4.5Zm4.5-14.75h9c.28,0,.5-.22.5-.5s-.22-.5-.5-.5h-9c-.28,0-.5.22-.5.5s.22.5.5.5Zm9,12h-9c-.28,0-.5.22-.5.5s.22.5.5.5h9c.28,0,.5-.22.5-.5s-.22-.5-.5-.5Z"/>
</svg>
