<svg xmlns="http://www.w3.org/2000/svg" viewBox="0 0 16 16">
  <!-- Source: files-community/Files@8ea6d30 src/Files.App.Controls/ThemedIcon/Styles/Icons.SizeLayout.xaml App.ThemedIcons.IconLayout.Details, MIT. -->
  <path fill="#242424" d="m6.5,3H1.5c-.28,0-.5.22-.5.5s.22.5.5.5h5c.28,0,.5-.22.5-.5s-.22-.5-.5-.5Zm3,0h5c.28,0,.5.22.5.5s-.22.5-.5.5h-5c-.28,0-.5-.22-.5-.5s.22-.5.5-.5ZM1.5,6h5c.28,0,.5.22.5.5s-.22.5-.5.5H1.5c-.28,0-.5-.22-.5-.5s.22-.5.5-.5Zm13,0h-5c-.28,0-.5.22-.5.5s.22.5.5.5h5c.28,0,.5-.22.5-.5s-.22-.5-.5-.5Zm-5,3h5c.28,0,.5.22.5.5s-.22.5-.5.5h-5c-.28,0-.5-.22-.5-.5s.22-.5.5-.5Zm-3,0H1.5c-.28,0-.5.22-.5.5s.22.5.5.5h5c.28,0,.5-.22.5-.5s-.22-.5-.5-.5Zm-5,3h5c.28,0,.5.22.5.5s-.22.5-.5.5H1.5c-.28,0-.5-.22-.5-.5s.22-.5.5-.5Zm13,0h-5c-.28,0-.5.22-.5.5s.22.5.5.5h5c.28,0,.5-.22.5-.5s-.22-.5-.5-.5Z"/>
</svg>
