<svg xmlns="http://www.w3.org/2000/svg" viewBox="0 0 28 28">
  <!-- Source: files-community/Files@8ea6d30 src/Files.App.Controls/ThemedIcon/Styles/Icons.SizeLayout28.xaml App.ThemedIcons.IconLayout.Grid.28, MIT. -->
  <path fill="#242424" d="m5.25,4c-.69,0-1.25.56-1.25,1.25v4.5c0,.69.56,1.25,1.25,1.25h4.5c.69,0,1.25-.56,1.25-1.25v-4.5c0-.69-.56-1.25-1.25-1.25h-4.5Zm-2.25,1.25c0-1.24,1.01-2.25,2.25-2.25h4.5c1.24,0,2.25,1.01,2.25,2.25v4.5c0,1.24-1.01,2.25-2.25,2.25h-4.5c-1.24,0-2.25-1.01-2.25-2.25v-4.5Zm13,0c0-1.24,1.01-2.25,2.25-2.25h4.5c1.24,0,2.25,1.01,2.25,2.25v4.5c0,1.24-1.01,2.25-2.25,2.25h-4.5c-1.24,0-2.25-1.01-2.25-2.25v-4.5Zm2.25-1.25c-.69,0-1.25.56-1.25,1.25v4.5c0,.69.56,1.25,1.25,1.25h4.5c.69,0,1.25-.56,1.25-1.25v-4.5c0-.69-.56-1.25-1.25-1.25h-4.5Zm-13,13c-.69,0-1.25.56-1.25,1.25v4.5c0,.69.56,1.25,1.25,1.25h4.5c.69,0,1.25-.56,1.25-1.25v-4.5c0-.69-.56-1.25-1.25-1.25h-4.5Zm-2.25,1.25c0-1.24,1.01-2.25,2.25-2.25h4.5c1.24,0,2.25,1.01,2.25,2.25v4.5c0,1.24-1.01,2.25-2.25,2.25h-4.5c-1.24,0-2.25-1.01-2.25-2.25v-4.5Zm15.25-1.25c-.69,0-1.25.56-1.25,1.25v4.5c0,.69.56,1.25,1.25,1.25h4.5c.69,0,1.25-.56,1.25-1.25v-4.5c0-.69-.56-1.25-1.25-1.25h-4.5Zm-2.25,1.25c0-1.24,1.01-2.25,2.25-2.25h4.5c1.24,0,2.25,1.01,2.25,2.25v4.5c0,1.24-1.01,2.25-2.25,2.25h-4.5c-1.24,0-2.25-1.01-2.25-2.25v-4.5Z"/>
</svg>
